<?xml version="1.0" encoding="UTF-8"?>
<svg width="64px" height="63px" viewBox="0 0 64 63" version="1.1" xmlns="http://www.w3.org/2000/svg" xmlns:xlink="http://www.w3.org/1999/xlink">
    <!-- Generator: Sketch 63.1 (92452) - https://sketch.com -->
    <title>asset creation</title>
    <desc>Created with Sketch.</desc>
    <g id="Page-1" stroke="none" stroke-width="1" fill="none" fill-rule="evenodd">
        <g id="asset-creation">
            <g id="Group">
                <path d="M46.1024407,12.9424891 C52.2023931,13.7909421 50.899929,2.5944196 58.4507916,9.77801253 C66.0016541,16.9616054 65.0787673,28.5338886 60.2600906,39.4722408 C57.9911142,44.6227965 45.2690362,69.1546123 22.0215243,61.5498622 C-2.63317574,53.4847914 17.6888702,38.5014333 5.10722263,30.5558596 C-6.10596263,23.4744985 2.63572562,3.37935242 16.9165342,0.75314756 C39.2289234,-3.35004485 28.8164697,10.5381534 46.1024407,12.9424891 Z" id="Mask" fill="#FFF4D0"></path>
                <g transform="translate(9.000000, 8.000000)" fill-rule="nonzero">
                    <path d="M37.7,49.4 L0.6,49.4 L0.6,2.6 C0.6,1.5 1.5,0.6 2.6,0.6 L37.7,0.6 L37.7,49.4 Z" id="Path" fill="#FFFFFF"></path>
                    <path d="M37.7,49.7 L0.6,49.7 C0.4,49.7 0.3,49.6 0.3,49.4 L0.3,2.6 C0.3,1.3 1.3,0.3 2.6,0.3 L37.7,0.3 C37.9,0.3 38,0.4 38,0.6 L38,49.4 C38,49.6 37.9,49.7 37.7,49.7 Z M0.9,49.1 L37.4,49.1 L37.4,0.9 L2.6,0.9 C1.7,0.9 0.9,1.7 0.9,2.6 L0.9,49.1 Z" id="Shape" fill="#000000"></path>
                </g>
                <g transform="translate(9.000000, 7.000000)" fill-rule="nonzero">
                    <path d="M0.6,8.1 L7.1,1.6 L7.1,5.4 C7.1,6.9 5.9,8.1 4.4,8.1 L0.6,8.1 Z" id="Path" fill="#F9D08E"></path>
                    <path d="M4.5,8.4 L0,8.4 L7.6,0.8 L7.6,5.3 C7.5,7 6.1,8.4 4.5,8.4 Z M1.4,7.8 L4.5,7.8 C5.8,7.8 6.9,6.7 6.9,5.4 L6.9,2.3 L1.4,7.8 Z" id="Shape" fill="#000000"></path>
                </g>
                <g transform="translate(16.000000, 29.000000)" fill-rule="nonzero">
                    <g>
                        <rect id="Rectangle" fill="#F9D08E" x="0.4" y="0.3" width="2.2" height="2.2"></rect>
                        <path d="M2.9,2.8 L0.1,2.8 L0.1,0 L2.9,0 L2.9,2.8 Z M0.7,2.2 L2.3,2.2 L2.3,0.6 L0.7,0.6 L0.7,2.2 Z" id="Shape" fill="#000000"></path>
                    </g>
                    <rect id="Rectangle" fill="#000000" x="2.6" y="1.1" width="19.2" height="1"></rect>
                    <g transform="translate(20.000000, 0.000000)">
                        <rect id="Rectangle" fill="#F9D08E" x="0.7" y="0.3" width="2.2" height="2.2"></rect>
                        <path d="M3.2,2.8 L0.4,2.8 L0.4,0 L3.2,0 L3.2,2.8 Z M1,2.2 L2.6,2.2 L2.6,0.6 L1,0.6 L1,2.2 Z" id="Shape" fill="#000000"></path>
                    </g>
                    <g transform="translate(11.000000, 0.000000)">
                        <rect id="Rectangle" fill="#F9D08E" x="0.3" y="0.3" width="2.2" height="2.2"></rect>
                        <path d="M2.8,2.8 L0,2.8 L0,0 L2.8,0 L2.8,2.8 Z M0.6,2.2 L2.2,2.2 L2.2,0.6 L0.6,0.6 L0.6,2.2 Z" id="Shape" fill="#000000"></path>
                    </g>
                </g>
                <g transform="translate(19.000000, 44.000000)" fill-rule="nonzero">
                    <rect id="Rectangle" fill="#180541" x="0.2" y="0.6" width="5.2" height="12.8"></rect>
                    <path d="M5.5,13.7 L0.3,13.7 C0.1,13.7 0,13.6 0,13.4 L0,0.6 C0,0.4 0.1,0.3 0.3,0.3 L5.5,0.3 C5.7,0.3 5.8,0.4 5.8,0.6 L5.8,13.4 C5.8,13.6 5.6,13.7 5.5,13.7 Z M0.5,13.1 L5.1,13.1 L5.1,0.9 L0.5,0.9 L0.5,13.1 L0.5,13.1 Z" id="Shape" fill="#000000"></path>
                </g>
                <g transform="translate(18.000000, 36.000000)" fill-rule="nonzero">
                    <polygon id="Path" fill="#FFFFFF" points="3.9 1.1 0.6 6.4 2.1 8.6 3.9 8.6 5.6 8.6 7.1 6.4"></polygon>
                    <path d="M5.6,8.9 L2.1,8.9 C2,8.9 1.9,8.9 1.9,8.8 L0.4,6.6 C0.3,6.5 0.3,6.4 0.4,6.3 L3.7,1 C3.8,0.8 4.1,0.8 4.2,1 L7.5,6.3 C7.6,6.4 7.6,6.5 7.5,6.6 L6,8.8 C5.8,8.8 5.7,8.9 5.6,8.9 Z M2.3,8.3 L5.5,8.3 L6.8,6.4 L3.9,1.7 L1,6.4 L2.3,8.3 Z" id="Shape" fill="#000000"></path>
                </g>
                <path d="M21.9,41.1 C21.7,41.1 21.6,41 21.6,40.8 L21.6,37.1 C21.6,36.9 21.7,36.8 21.9,36.8 C22.1,36.8 22.2,36.9 22.2,37.1 L22.2,40.8 C22.2,41 22,41.1 21.9,41.1 Z" id="Path" fill="#000000" fill-rule="nonzero"></path>
                <path d="M21.9,43.3 C21.1,43.3 20.5,42.7 20.5,41.9 C20.5,41.1 21.1,40.5 21.9,40.5 C22.7,40.5 23.3,41.1 23.3,41.9 C23.2,42.6 22.6,43.3 21.9,43.3 Z M21.9,41.1 C21.5,41.1 21.1,41.4 21.1,41.9 C21.1,42.4 21.4,42.7 21.9,42.7 C22.4,42.7 22.7,42.4 22.7,41.9 C22.7,41.4 22.3,41.1 21.9,41.1 Z" id="Shape" fill="#000000" fill-rule="nonzero"></path>
                <g transform="translate(42.000000, 3.000000)" fill-rule="nonzero">
                    <g>
                        <rect id="Rectangle" fill="#F9D08E" x="0.4" y="0.8" width="7.4" height="54.1"></rect>
                        <path d="M8,55.3 L0,55.3 L0,0.6 L8,0.6 L8,55.3 Z M0.7,54.7 L7.5,54.7 L7.5,1.2 L0.7,1.2 L0.7,54.7 Z" id="Shape" fill="#000000"></path>
                    </g>
                    <path d="M7.7,4.4 L5.7,4.4 C5.5,4.4 5.4,4.3 5.4,4.1 C5.4,3.9 5.5,3.8 5.7,3.8 L7.7,3.8 C7.9,3.8 8,3.9 8,4.1 C8,4.3 7.9,4.4 7.7,4.4 Z" id="Path" fill="#000000"></path>
                    <path d="M7.7,8.3 L5.7,8.3 C5.5,8.3 5.4,8.2 5.4,8 C5.4,7.8 5.5,7.7 5.7,7.7 L7.7,7.7 C7.9,7.7 8,7.8 8,8 C8,8.2 7.9,8.3 7.7,8.3 Z" id="Path" fill="#000000"></path>
                    <path d="M7.7,12.2 L5.7,12.2 C5.5,12.2 5.4,12.1 5.4,11.9 C5.4,11.7 5.5,11.6 5.7,11.6 L7.7,11.6 C7.9,11.6 8,11.7 8,11.9 C8,12.1 7.9,12.2 7.7,12.2 Z" id="Path" fill="#000000"></path>
                    <path d="M7.7,16.2 L5.7,16.2 C5.5,16.2 5.4,16.1 5.4,15.9 C5.4,15.7 5.5,15.6 5.7,15.6 L7.7,15.6 C7.9,15.6 8,15.7 8,15.9 C8,16.1 7.9,16.2 7.7,16.2 Z" id="Path" fill="#000000"></path>
                    <path d="M7.7,20.1 L5.7,20.1 C5.5,20.1 5.4,20 5.4,19.8 C5.4,19.6 5.5,19.5 5.7,19.5 L7.7,19.5 C7.9,19.5 8,19.6 8,19.8 C8,20 7.9,20.1 7.7,20.1 Z" id="Path" fill="#000000"></path>
                    <path d="M7.7,24 L5.7,24 C5.5,24 5.4,23.9 5.4,23.7 C5.4,23.5 5.5,23.4 5.7,23.4 L7.7,23.4 C7.9,23.4 8,23.5 8,23.7 C8,23.9 7.9,24 7.7,24 Z" id="Path" fill="#000000"></path>
                    <path d="M7.7,28 L5.7,28 C5.5,28 5.4,27.9 5.4,27.7 C5.4,27.5 5.5,27.4 5.7,27.4 L7.7,27.4 C7.9,27.4 8,27.5 8,27.7 C8,27.9 7.9,28 7.7,28 Z" id="Path" fill="#000000"></path>
                    <path d="M7.7,31.9 L5.7,31.9 C5.5,31.9 5.4,31.8 5.4,31.6 C5.4,31.4 5.5,31.3 5.7,31.3 L7.7,31.3 C7.9,31.3 8,31.4 8,31.6 C8,31.8 7.9,31.9 7.7,31.9 Z" id="Path" fill="#000000"></path>
                    <path d="M7.7,35.8 L5.7,35.8 C5.5,35.8 5.4,35.7 5.4,35.5 C5.4,35.3 5.5,35.2 5.7,35.2 L7.7,35.2 C7.9,35.2 8,35.3 8,35.5 C8,35.7 7.9,35.8 7.7,35.8 Z" id="Path" fill="#000000"></path>
                    <path d="M7.7,39.7 L5.7,39.7 C5.5,39.7 5.4,39.6 5.4,39.4 C5.4,39.2 5.5,39.1 5.7,39.1 L7.7,39.1 C7.9,39.1 8,39.2 8,39.4 C8,39.6 7.9,39.7 7.7,39.7 Z" id="Path" fill="#000000"></path>
                    <path d="M7.7,43.7 L5.7,43.7 C5.5,43.7 5.4,43.6 5.4,43.4 C5.4,43.2 5.5,43.1 5.7,43.1 L7.7,43.1 C7.9,43.1 8,43.2 8,43.4 C8,43.6 7.9,43.7 7.7,43.7 Z" id="Path" fill="#000000"></path>
                    <path d="M7.7,47.6 L5.7,47.6 C5.5,47.6 5.4,47.5 5.4,47.3 C5.4,47.1 5.5,47 5.7,47 L7.7,47 C7.9,47 8,47.1 8,47.3 C8,47.5 7.9,47.6 7.7,47.6 Z" id="Path" fill="#000000"></path>
                    <path d="M7.7,51.5 L5.7,51.5 C5.5,51.5 5.4,51.4 5.4,51.2 C5.4,51 5.5,50.9 5.7,50.9 L7.7,50.9 C7.9,50.9 8,51 8,51.2 C8,51.4 7.9,51.5 7.7,51.5 Z" id="Path" fill="#000000"></path>
                </g>
                <g transform="translate(51.000000, 15.000000)" fill-rule="nonzero">
                    <g transform="translate(0.000000, 4.000000)">
                        <rect id="Rectangle" fill="#8C839F" x="1.1" y="0.8" width="2.7" height="25.2"></rect>
                        <path d="M3.7,26.4 L1,26.4 C0.8,26.4 0.7,26.3 0.7,26.1 L0.7,0.9 C0.7,0.7 0.8,0.6 1,0.6 L3.7,0.6 C3.9,0.6 4,0.7 4,0.9 L4,26.1 C4,26.3 3.9,26.4 3.7,26.4 Z M1.4,25.8 L3.5,25.8 L3.5,1.2 L1.4,1.2 L1.4,25.8 Z" id="Shape" fill="#000000"></path>
                    </g>
                    <g transform="translate(0.000000, 29.000000)">
                        <path d="M2.4,4.9 L2.4,4.9 C1.6,4.9 1.1,4.3 1.1,3.6 L1.1,1 L3.8,1 L3.8,3.6 C3.7,4.4 3.1,4.9 2.4,4.9 Z" id="Path" fill="#FFFFFF"></path>
                        <path d="M2.4,5.3 L2.4,5.3 C1.5,5.3 0.8,4.6 0.8,3.7 L0.8,1.1 C0.8,0.9 0.9,0.8 1.1,0.8 L3.8,0.8 C4,0.8 4.1,0.9 4.1,1.1 L4.1,3.7 C4,4.5 3.3,5.3 2.4,5.3 Z M1.4,1.4 L1.4,3.7 C1.4,4.3 1.9,4.7 2.4,4.7 L2.4,4.7 C3,4.7 3.4,4.2 3.4,3.7 L3.4,1.4 L1.4,1.4 Z" id="Shape" fill="#000000"></path>
                    </g>
                    <g>
                        <polygon id="Path" fill="#FFFFFF" points="2.3 0.7 1.1 4.8 3.7 4.8"></polygon>
                        <path d="M3.7,5.1 L1,5.1 C0.9,5.1 0.8,5.1 0.8,5 C0.7,4.9 0.7,4.8 0.8,4.7 L2.1,0.6 C2.1,0.5 2.3,0.4 2.4,0.4 C2.4,0.4 2.4,0.4 2.4,0.4 C2.5,0.4 2.6,0.5 2.7,0.6 L4.1,4.7 C4.1,4.8 4.1,4.9 4.1,5 C3.9,5.1 3.8,5.1 3.7,5.1 Z M1.5,4.5 L3.3,4.5 L2.3,1.7 L1.5,4.5 Z" id="Shape" fill="#000000"></path>
                    </g>
                </g>
                <path d="M32.7,5.4 L6,5.4 C5.8,5.4 5.7,5.3 5.7,5.1 C5.7,4.9 5.8,4.8 6,4.8 L32.7,4.8 C32.9,4.8 33,4.9 33,5.1 C33,5.3 32.9,5.4 32.7,5.4 Z" id="Path" fill="#000000" fill-rule="nonzero"></path>
                <path d="M4.5,5.4 L2.4,5.4 C2.2,5.4 2.1,5.3 2.1,5.1 C2.1,4.9 2.2,4.8 2.4,4.8 L4.5,4.8 C4.7,4.8 4.8,4.9 4.8,5.1 C4.8,5.3 4.7,5.4 4.5,5.4 Z" id="Path" fill="#000000" fill-rule="nonzero"></path>
                <path d="M59,8.9 L46.7,8.9 C46.5,8.9 46.4,8.8 46.4,8.6 C46.4,8.4 46.5,8.3 46.7,8.3 L59,8.3 C59.2,8.3 59.3,8.4 59.3,8.6 C59.3,8.8 59.2,8.9 59,8.9 Z" id="Path" fill="#000000" fill-rule="nonzero"></path>
                <path d="M63.5,8.8 L60.6,8.8 C60.4,8.8 60.3,8.7 60.3,8.5 C60.3,8.3 60.4,8.2 60.6,8.2 L63.5,8.2 C63.7,8.2 63.8,8.3 63.8,8.5 C63.8,8.7 63.6,8.8 63.5,8.8 Z" id="Path" fill="#000000" fill-rule="nonzero"></path>
                <path d="M29.5,7.4 L12.6,7.4 C12.4,7.4 12.3,7.3 12.3,7.1 C12.3,6.9 12.4,6.8 12.6,6.8 L29.5,6.8 C29.7,6.8 29.8,6.9 29.8,7.1 C29.8,7.3 29.7,7.4 29.5,7.4 Z" id="Path" fill="#000000" fill-rule="nonzero"></path>
                <path d="M62.6,11.3 L52.8,11.3 C52.6,11.3 52.5,11.2 52.5,11 C52.5,10.8 52.6,10.7 52.8,10.7 L62.6,10.7 C62.8,10.7 62.9,10.8 62.9,11 C62.9,11.2 62.8,11.3 62.6,11.3 Z" id="Path" fill="#000000" fill-rule="nonzero"></path>
                <path d="M63.5,49.3 L46.7,49.3 C46.5,49.3 46.4,49.2 46.4,49 C46.4,48.8 46.5,48.7 46.7,48.7 L63.4,48.7 C63.6,48.7 63.7,48.8 63.7,49 C63.8,49.1 63.6,49.3 63.5,49.3 Z" id="Path" fill="#000000" fill-rule="nonzero"></path>
                <path d="M44.3,49.3 L39,49.3 C38.8,49.3 38.7,49.2 38.7,49 C38.7,48.8 38.8,48.7 39,48.7 L44.3,48.7 C44.5,48.7 44.6,48.8 44.6,49 C44.6,49.1 44.4,49.3 44.3,49.3 Z" id="Path" fill="#000000" fill-rule="nonzero"></path>
                <path d="M16.2,20.1 L4.5,20.1 C4.3,20.1 4.2,20 4.2,19.8 C4.2,19.6 4.3,19.5 4.5,19.5 L16.1,19.5 C16.3,19.5 16.4,19.6 16.4,19.8 C16.4,20 16.3,20.1 16.2,20.1 Z" id="Path" fill="#000000" fill-rule="nonzero"></path>
                <path d="M20.1,22.2 L7.9,22.2 C7.7,22.2 7.6,22.1 7.6,21.9 C7.6,21.7 7.7,21.6 7.9,21.6 L20.1,21.6 C20.3,21.6 20.4,21.7 20.4,21.9 C20.4,22.1 20.3,22.2 20.1,22.2 Z" id="Path" fill="#000000" fill-rule="nonzero"></path>
                <path d="M14,41.1 L4.5,41.1 C4.3,41.1 4.2,41 4.2,40.8 C4.2,40.6 4.3,40.5 4.5,40.5 L14,40.5 C14.2,40.5 14.3,40.6 14.3,40.8 C14.3,41 14.2,41.1 14,41.1 Z" id="Path" fill="#000000" fill-rule="nonzero"></path>
                <path d="M2.9,41.1 L0.8,41.1 C0.6,41.1 0.5,41 0.5,40.8 C0.5,40.6 0.6,40.5 0.8,40.5 L2.9,40.5 C3.1,40.5 3.2,40.6 3.2,40.8 C3.2,41 3.1,41.1 2.9,41.1 Z" id="Path" fill="#000000" fill-rule="nonzero"></path>
                <g transform="translate(31.000000, 44.000000)" fill="#000000" fill-rule="nonzero" id="Path">
                    <path d="M2.2,4.1 C2,4.1 1.9,4 1.9,3.8 L1.9,1 C1.9,0.8 2,0.7 2.2,0.7 C2.4,0.7 2.5,0.8 2.5,1 L2.5,3.8 C2.5,3.9 2.3,4.1 2.2,4.1 Z"></path>
                    <path d="M3.5,2.7 L0.7,2.7 C0.5,2.7 0.4,2.6 0.4,2.4 C0.4,2.2 0.5,2.1 0.7,2.1 L3.5,2.1 C3.7,2.1 3.8,2.2 3.8,2.4 C3.8,2.6 3.7,2.7 3.5,2.7 Z"></path>
                </g>
                <g transform="translate(31.000000, 20.000000)" fill="#000000" fill-rule="nonzero" id="Path">
                    <path d="M1.7,3.6 C1.5,3.6 1.4,3.5 1.4,3.3 L1.4,0.5 C1.4,0.3 1.5,0.2 1.7,0.2 C1.9,0.2 2,0.3 2,0.5 L2,3.3 C2,3.4 1.9,3.6 1.7,3.6 Z"></path>
                    <path d="M3.1,2.2 L0.3,2.2 C0.1,2.2 0,2.1 0,1.9 C0,1.7 0.1,1.6 0.3,1.6 L3.1,1.6 C3.3,1.6 3.4,1.7 3.4,1.9 C3.4,2.1 3.3,2.2 3.1,2.2 Z"></path>
                </g>
                <g transform="translate(19.000000, 12.000000)" fill="#000000" fill-rule="nonzero" id="Path">
                    <path d="M2.1,4 C1.9,4 1.8,3.9 1.8,3.7 L1.8,1 C1.8,0.8 1.9,0.7 2.1,0.7 C2.3,0.7 2.4,0.8 2.4,1 L2.4,3.8 C2.4,3.9 2.2,4 2.1,4 Z"></path>
                    <path d="M3.4,2.7 L0.6,2.7 C0.4,2.7 0.3,2.6 0.3,2.4 C0.3,2.2 0.4,2.1 0.6,2.1 L3.4,2.1 C3.6,2.1 3.7,2.2 3.7,2.4 C3.7,2.5 3.6,2.7 3.4,2.7 Z"></path>
                </g>
                <g transform="translate(11.000000, 50.000000)" fill="#000000" fill-rule="nonzero" id="Path">
                    <path d="M1.9,3.4 C1.7,3.4 1.6,3.3 1.6,3.1 L1.6,0.3 C1.6,0.1 1.7,1.13686838e-13 1.9,1.13686838e-13 C2.1,1.13686838e-13 2.2,0.1 2.2,0.3 L2.2,3.1 C2.2,3.2 2.1,3.4 1.9,3.4 Z"></path>
                    <path d="M3.3,2 L0.5,2 C0.3,2 0.2,1.9 0.2,1.7 C0.2,1.5 0.3,1.4 0.5,1.4 L3.3,1.4 C3.5,1.4 3.6,1.5 3.6,1.7 C3.6,1.9 3.5,2 3.3,2 Z"></path>
                </g>
                <g transform="translate(58.000000, 32.000000)" fill="#FFFFFF" fill-rule="nonzero" id="Path">
                    <path d="M2.5,3.5 C2.3,3.5 2.2,3.4 2.2,3.2 L2.2,0.4 C2.2,0.2 2.3,0.1 2.5,0.1 C2.7,0.1 2.8,0.2 2.8,0.4 L2.8,3.2 C2.8,3.4 2.7,3.5 2.5,3.5 Z"></path>
                    <path d="M3.9,2.1 L1.1,2.1 C0.9,2.1 0.8,2 0.8,1.8 C0.8,1.6 0.9,1.5 1.1,1.5 L3.9,1.5 C4.1,1.5 4.2,1.6 4.2,1.8 C4.2,2 4.1,2.1 3.9,2.1 Z"></path>
                </g>
            </g>
        </g>
    </g>
</svg>