<?xml version="1.0" encoding="UTF-8"?>
<svg width="82px" height="57px" viewBox="0 0 82 57" version="1.1" xmlns="http://www.w3.org/2000/svg" xmlns:xlink="http://www.w3.org/1999/xlink">
    <!-- Generator: Sketch 63.1 (92452) - https://sketch.com -->
    <title>branding</title>
    <desc>Created with Sketch.</desc>
    <g id="Page-1" stroke="none" stroke-width="1" fill="none" fill-rule="evenodd">
        <g id="branding">
            <g id="Group">
                <path d="M0.593875118,12.1642458 C-2.81392233,22.9078498 9.4882145,21.5095725 11.043714,27.7150334 C12.5992135,33.9204943 0.815709069,41.8761344 11.1135977,50.1664153 C21.4114863,58.4566961 33.8421251,48.1538393 43.6506551,49.2785141 C53.4591852,50.4031889 59.3857894,58.5866779 72.1279886,50.4031889 C84.8701878,42.2196999 82.1883994,26.1634874 80.6919318,18.6163276 C79.1954642,11.0691677 75.5778947,7.00924576 67.9052831,5.32740693 C60.2326715,3.6455681 59.4285488,12.1224771 48.0620825,11.3780179 C36.6956162,10.6335586 33.5771511,0 23.6187327,0 C13.6603143,0 4.00167257,1.42064185 0.593875118,12.1642458 Z" id="Mask" fill="#FFF4D0"></path>
                <g transform="translate(15.000000, 2.000000)" fill-rule="nonzero">
                    <g>
                        <rect id="Rectangle" fill="#F9D08E" x="1" y="0.5" width="7.4" height="54.1"></rect>
                        <path d="M8.7,54.9 L0.7,54.9 L0.7,0.2 L8.7,0.2 L8.7,54.9 Z M1.3,54.3 L8.1,54.3 L8.1,0.8 L1.3,0.8 L1.3,54.3 Z" id="Shape" fill="#000000"></path>
                    </g>
                    <path d="M8.4,4 L6.4,4 C6.2,4 6.1,3.9 6.1,3.7 C6.1,3.5 6.2,3.4 6.4,3.4 L8.4,3.4 C8.6,3.4 8.7,3.5 8.7,3.7 C8.7,3.9 8.6,4 8.4,4 Z" id="Path" fill="#000000"></path>
                    <path d="M8.4,7.9 L6.4,7.9 C6.2,7.9 6.1,7.8 6.1,7.6 C6.1,7.4 6.2,7.3 6.4,7.3 L8.4,7.3 C8.6,7.3 8.7,7.4 8.7,7.6 C8.7,7.8 8.6,7.9 8.4,7.9 Z" id="Path" fill="#000000"></path>
                    <path d="M8.4,11.9 L6.4,11.9 C6.2,11.9 6.1,11.8 6.1,11.6 C6.1,11.4 6.2,11.3 6.4,11.3 L8.4,11.3 C8.6,11.3 8.7,11.4 8.7,11.6 C8.7,11.8 8.6,11.9 8.4,11.9 Z" id="Path" fill="#000000"></path>
                    <path d="M8.4,15.8 L6.4,15.8 C6.2,15.8 6.1,15.7 6.1,15.5 C6.1,15.3 6.2,15.2 6.4,15.2 L8.4,15.2 C8.6,15.2 8.7,15.3 8.7,15.5 C8.7,15.7 8.6,15.8 8.4,15.8 Z" id="Path" fill="#000000"></path>
                    <path d="M8.4,19.7 L6.4,19.7 C6.2,19.7 6.1,19.6 6.1,19.4 C6.1,19.2 6.2,19.1 6.4,19.1 L8.4,19.1 C8.6,19.1 8.7,19.2 8.7,19.4 C8.7,19.6 8.6,19.7 8.4,19.7 Z" id="Path" fill="#000000"></path>
                    <path d="M8.4,23.7 L6.4,23.7 C6.2,23.7 6.1,23.6 6.1,23.4 C6.1,23.2 6.2,23.1 6.4,23.1 L8.4,23.1 C8.6,23.1 8.7,23.2 8.7,23.4 C8.7,23.6 8.6,23.7 8.4,23.7 Z" id="Path" fill="#000000"></path>
                    <path d="M8.4,27.6 L6.4,27.6 C6.2,27.6 6.1,27.5 6.1,27.3 C6.1,27.1 6.2,27 6.4,27 L8.4,27 C8.6,27 8.7,27.1 8.7,27.3 C8.7,27.5 8.6,27.6 8.4,27.6 Z" id="Path" fill="#000000"></path>
                    <path d="M8.4,31.5 L6.4,31.5 C6.2,31.5 6.1,31.4 6.1,31.2 C6.1,31 6.2,30.9 6.4,30.9 L8.4,30.9 C8.6,30.9 8.7,31 8.7,31.2 C8.7,31.4 8.6,31.5 8.4,31.5 Z" id="Path" fill="#000000"></path>
                    <path d="M8.4,35.5 L6.4,35.5 C6.2,35.5 6.1,35.4 6.1,35.2 C6.1,35 6.2,34.9 6.4,34.9 L8.4,34.9 C8.6,34.9 8.7,35 8.7,35.2 C8.7,35.3 8.6,35.5 8.4,35.5 Z" id="Path" fill="#000000"></path>
                    <path d="M8.4,39.4 L6.4,39.4 C6.2,39.4 6.1,39.3 6.1,39.1 C6.1,38.9 6.2,38.8 6.4,38.8 L8.4,38.8 C8.6,38.8 8.7,38.9 8.7,39.1 C8.7,39.3 8.6,39.4 8.4,39.4 Z" id="Path" fill="#000000"></path>
                    <path d="M8.4,43.3 L6.4,43.3 C6.2,43.3 6.1,43.2 6.1,43 C6.1,42.8 6.2,42.7 6.4,42.7 L8.4,42.7 C8.6,42.7 8.7,42.8 8.7,43 C8.7,43.2 8.6,43.3 8.4,43.3 Z" id="Path" fill="#000000"></path>
                    <path d="M8.4,47.2 L6.4,47.2 C6.2,47.2 6.1,47.1 6.1,46.9 C6.1,46.7 6.2,46.6 6.4,46.6 L8.4,46.6 C8.6,46.6 8.7,46.7 8.7,46.9 C8.7,47.1 8.6,47.2 8.4,47.2 Z" id="Path" fill="#000000"></path>
                    <path d="M8.4,51.2 L6.4,51.2 C6.2,51.2 6.1,51.1 6.1,50.9 C6.1,50.7 6.2,50.6 6.4,50.6 L8.4,50.6 C8.6,50.6 8.7,50.7 8.7,50.9 C8.7,51.1 8.6,51.2 8.4,51.2 Z" id="Path" fill="#000000"></path>
                </g>
                <g transform="translate(18.000000, 9.000000)" fill-rule="nonzero">
                    <g transform="translate(7.000000, 0.000000)">
                        <path d="M28.6,5.2 L28.6,36.9 L0.6,36.9 L0.6,0.8 L24.2,0.8 C26.7,0.8 28.6,2.8 28.6,5.2 Z" id="Path" fill="#FFFFFF"></path>
                        <path d="M28.9,37.1 L0.3,37.1 L0.3,0.4 L24.2,0.4 C26.8,0.4 28.9,2.5 28.9,5.1 L28.9,37.1 Z M0.9,36.5 L28.3,36.5 L28.3,5.1 C28.3,2.8 26.5,1 24.2,1 L0.9,1 L0.9,36.5 Z" id="Shape" fill="#000000"></path>
                    </g>
                    <g>
                        <path d="M31.9,0.8 C28.3,0.8 25.4,3.7 25.4,7.3 L1.2,7.3 C1.2,3.7 4.1,0.8 7.7,0.8 L31.9,0.8 Z" id="Path" fill="#180541"></path>
                        <path d="M25.7,7.6 L0.9,7.6 L0.9,7.3 C0.9,3.6 3.9,0.5 7.7,0.5 L31.9,0.5 L31.9,1.1 C28.5,1.1 25.7,3.9 25.7,7.3 L25.7,7.6 Z M1.5,7 L25.1,7 C25.2,4.4 26.8,2.2 29.1,1.1 L7.7,1.1 C4.3,1.1 1.6,3.7 1.5,7 Z" id="Shape" fill="#000000"></path>
                    </g>
                    <path d="M32.3,33 L10.5,33 C10.3,33 10.2,32.9 10.2,32.7 C10.2,32.5 10.3,32.4 10.5,32.4 L32.3,32.4 C32.5,32.4 32.6,32.5 32.6,32.7 C32.6,32.9 32.4,33 32.3,33 Z" id="Path" fill="#000000"></path>
                    <path d="M32.3,30.1 L10.5,30.1 C10.3,30.1 10.2,30 10.2,29.8 C10.2,29.6 10.3,29.5 10.5,29.5 L32.3,29.5 C32.5,29.5 32.6,29.6 32.6,29.8 C32.6,30 32.4,30.1 32.3,30.1 Z" id="Path" fill="#000000"></path>
                    <path d="M32.3,27.3 L10.5,27.3 C10.3,27.3 10.2,27.2 10.2,27 C10.2,26.8 10.3,26.7 10.5,26.7 L32.3,26.7 C32.5,26.7 32.6,26.8 32.6,27 C32.6,27.2 32.4,27.3 32.3,27.3 Z" id="Path" fill="#000000"></path>
                    <path d="M32.3,24.4 L10.5,24.4 C10.3,24.4 10.2,24.3 10.2,24.1 C10.2,23.9 10.3,23.8 10.5,23.8 L32.3,23.8 C32.5,23.8 32.6,23.9 32.6,24.1 C32.6,24.3 32.4,24.4 32.3,24.4 Z" id="Path" fill="#000000"></path>
                    <path d="M32.3,21.5 L10.5,21.5 C10.3,21.5 10.2,21.4 10.2,21.2 C10.2,21 10.3,20.9 10.5,20.9 L32.3,20.9 C32.5,20.9 32.6,21 32.6,21.2 C32.6,21.4 32.4,21.5 32.3,21.5 Z" id="Path" fill="#000000"></path>
                    <path d="M32.3,18.7 L10.5,18.7 C10.3,18.7 10.2,18.6 10.2,18.4 C10.2,18.2 10.3,18.1 10.5,18.1 L32.3,18.1 C32.5,18.1 32.6,18.2 32.6,18.4 C32.6,18.6 32.4,18.7 32.3,18.7 Z" id="Path" fill="#000000"></path>
                    <path d="M32.3,15.8 L10.5,15.8 C10.3,15.8 10.2,15.7 10.2,15.5 C10.2,15.3 10.3,15.2 10.5,15.2 L32.3,15.2 C32.5,15.2 32.6,15.3 32.6,15.5 C32.6,15.7 32.4,15.8 32.3,15.8 Z" id="Path" fill="#000000"></path>
                    <path d="M32.3,13 L10.5,13 C10.3,13 10.2,12.9 10.2,12.7 C10.2,12.5 10.3,12.4 10.5,12.4 L32.3,12.4 C32.5,12.4 32.6,12.5 32.6,12.7 C32.6,12.9 32.4,13 32.3,13 Z" id="Path" fill="#000000"></path>
                    <path d="M32.3,10.1 L10.5,10.1 C10.3,10.1 10.2,10 10.2,9.8 C10.2,9.6 10.3,9.5 10.5,9.5 L32.3,9.5 C32.5,9.5 32.6,9.6 32.6,9.8 C32.6,10 32.4,10.1 32.3,10.1 Z" id="Path" fill="#000000"></path>
                </g>
                <g transform="translate(55.000000, 7.000000)" fill-rule="nonzero">
                    <g transform="translate(0.000000, 4.000000)">
                        <rect id="Rectangle" fill="#180541" x="0.8" y="0.8" width="2.7" height="25.2"></rect>
                        <path d="M3.4,26.4 L0.7,26.4 C0.5,26.4 0.4,26.3 0.4,26.1 L0.4,0.9 C0.4,0.7 0.5,0.6 0.7,0.6 L3.4,0.6 C3.6,0.6 3.7,0.7 3.7,0.9 L3.7,26.1 C3.7,26.2 3.6,26.4 3.4,26.4 Z M1.1,25.8 L3.2,25.8 L3.2,1.2 L1.1,1.2 L1.1,25.8 Z" id="Shape" fill="#000000"></path>
                    </g>
                    <g transform="translate(0.000000, 29.000000)">
                        <path d="M2.1,4.9 L2.1,4.9 C1.3,4.9 0.8,4.3 0.8,3.6 L0.8,1 L3.5,1 L3.5,3.6 C3.4,4.3 2.9,4.9 2.1,4.9 Z" id="Path" fill="#FFFFFF"></path>
                        <path d="M2.1,5.2 L2.1,5.2 C1.2,5.2 0.5,4.5 0.5,3.6 L0.5,1.1 C0.5,0.9 0.6,0.8 0.8,0.8 L3.5,0.8 C3.7,0.8 3.8,0.9 3.8,1.1 L3.8,3.6 C3.7,4.5 3,5.2 2.1,5.2 Z M1.1,1.4 L1.1,3.7 C1.1,4.3 1.6,4.7 2.1,4.7 L2.1,4.7 C2.7,4.7 3.1,4.2 3.1,3.7 L3.1,1.4 L1.1,1.4 Z" id="Shape" fill="#000000"></path>
                    </g>
                    <g>
                        <polygon id="Path" fill="#FFFFFF" points="2 0.7 0.8 4.8 3.4 4.8"></polygon>
                        <path d="M3.4,5.1 L0.7,5.1 C0.6,5.1 0.5,5.1 0.5,5 C0.4,4.9 0.4,4.8 0.5,4.7 L1.8,0.6 C1.8,0.5 2,0.4 2.1,0.4 C2.2,0.4 2.3,0.5 2.4,0.6 L3.8,4.7 C3.8,4.8 3.8,4.9 3.8,5 C3.6,5.1 3.5,5.1 3.4,5.1 Z M1.2,4.5 L3,4.5 L2,1.7 L1.2,4.5 Z" id="Shape" fill="#000000"></path>
                    </g>
                </g>
                <g transform="translate(34.000000, 41.000000)" fill-rule="nonzero">
                    <g>
                        <rect id="Rectangle" fill="#8C839F" x="0.5" y="0.7" width="19.5" height="12.7"></rect>
                        <path d="M20,13.7 L0.5,13.7 C0.3,13.7 0.2,13.6 0.2,13.4 L0.2,0.7 C0.2,0.5 0.3,0.4 0.5,0.4 L20,0.4 C20.2,0.4 20.3,0.5 20.3,0.7 L20.3,13.4 C20.3,13.6 20.2,13.7 20,13.7 Z M0.8,13.1 L19.7,13.1 L19.7,1 L0.8,1 L0.8,13.1 Z" id="Shape" fill="#000000"></path>
                    </g>
                    <g transform="translate(5.000000, 3.000000)">
                        <g transform="translate(0.000000, 1.000000)">
                            <circle id="Oval" fill="#F9D08E" cx="3.4" cy="3.1" r="2.5"></circle>
                            <path d="M3.4,5.8 C1.9,5.8 0.6,4.6 0.6,3 C0.6,1.4 1.8,0.2 3.4,0.2 C4.9,0.2 6.2,1.4 6.2,3 C6.2,4.6 5,5.8 3.4,5.8 Z M3.4,0.9 C2.2,0.9 1.2,1.9 1.2,3.1 C1.2,4.3 2.2,5.3 3.4,5.3 C4.6,5.3 5.6,4.3 5.6,3.1 C5.6,1.9 4.6,0.9 3.4,0.9 Z" id="Shape" fill="#000000"></path>
                        </g>
                        <g transform="translate(1.000000, 0.000000)">
                            <polygon id="Path" fill="#F9D08E" points="8.6 7.3 1.2 7.3 4.9 0.9"></polygon>
                            <path d="M9.1,7.6 L0.7,7.6 L4.9,0.3 L9.1,7.6 Z M1.7,7 L8,7 L4.8,1.5 L1.7,7 Z" id="Shape" fill="#000000"></path>
                        </g>
                    </g>
                </g>
                <path d="M62.8,2.8 L41.3,2.8 C41.1,2.8 41,2.7 41,2.5 C41,2.3 41.1,2.2 41.3,2.2 L62.8,2.2 C63,2.2 63.1,2.3 63.1,2.5 C63.1,2.7 62.9,2.8 62.8,2.8 Z" id="Path" fill="#000000" fill-rule="nonzero"></path>
                <path d="M66.3,2.8 L64.6,2.8 C64.4,2.8 64.3,2.7 64.3,2.5 C64.3,2.3 64.4,2.2 64.6,2.2 L66.3,2.2 C66.5,2.2 66.6,2.3 66.6,2.5 C66.6,2.7 66.5,2.8 66.3,2.8 Z" id="Path" fill="#000000" fill-rule="nonzero"></path>
                <path d="M68.4,6 L34.5,6 C34.3,6 34.2,5.9 34.2,5.7 C34.2,5.5 34.3,5.4 34.5,5.4 L68.4,5.4 C68.6,5.4 68.7,5.5 68.7,5.7 C68.7,5.9 68.6,6 68.4,6 Z" id="Path" fill="#000000" fill-rule="nonzero"></path>
                <path d="M32.1,6 L29.6,6 C29.4,6 29.3,5.9 29.3,5.7 C29.3,5.5 29.4,5.4 29.6,5.4 L32.1,5.4 C32.3,5.4 32.4,5.5 32.4,5.7 C32.4,5.9 32.2,6 32.1,6 Z" id="Path" fill="#000000" fill-rule="nonzero"></path>
                <path d="M71.5,16.6 L61.1,16.6 C60.9,16.6 60.8,16.5 60.8,16.3 C60.8,16.1 60.9,16 61.1,16 L71.5,16 C71.7,16 71.8,16.1 71.8,16.3 C71.8,16.5 71.7,16.6 71.5,16.6 Z" id="Path" fill="#000000" fill-rule="nonzero"></path>
                <path d="M75.1,16.6 L73.1,16.6 C72.9,16.6 72.8,16.5 72.8,16.3 C72.8,16.1 72.9,16 73.1,16 L75.1,16 C75.3,16 75.4,16.1 75.4,16.3 C75.4,16.5 75.2,16.6 75.1,16.6 Z" id="Path" fill="#000000" fill-rule="nonzero"></path>
                <path d="M13.7,26.8 L7,26.8 C6.8,26.8 6.7,26.7 6.7,26.5 C6.7,26.3 6.8,26.2 7,26.2 L13.6,26.2 C13.8,26.2 13.9,26.3 13.9,26.5 C13.9,26.7 13.9,26.8 13.7,26.8 Z" id="Path" fill="#000000" fill-rule="nonzero"></path>
                <path d="M5.2,26.8 L3.4,26.8 C3.2,26.8 3.1,26.7 3.1,26.5 C3.1,26.3 3.2,26.2 3.4,26.2 L5.2,26.2 C5.4,26.2 5.5,26.3 5.5,26.5 C5.5,26.7 5.4,26.8 5.2,26.8 Z" id="Path" fill="#000000" fill-rule="nonzero"></path>
                <path d="M74.1,24.8 L62.8,24.8 C62.6,24.8 62.5,24.7 62.5,24.5 C62.5,24.3 62.6,24.2 62.8,24.2 L74.1,24.2 C74.3,24.2 74.4,24.3 74.4,24.5 C74.4,24.7 74.2,24.8 74.1,24.8 Z" id="Path" fill="#000000" fill-rule="nonzero"></path>
                <path d="M76.9,26.8 L66.3,26.8 C66.1,26.8 66,26.7 66,26.5 C66,26.3 66.1,26.2 66.3,26.2 L76.9,26.2 C77.1,26.2 77.2,26.3 77.2,26.5 C77.2,26.7 77.1,26.8 76.9,26.8 Z" id="Path" fill="#000000" fill-rule="nonzero"></path>
                <path d="M70.4,45.3 L58.5,45.3 C58.3,45.3 58.2,45.2 58.2,45 C58.2,44.8 58.3,44.7 58.5,44.7 L70.4,44.7 C70.6,44.7 70.7,44.8 70.7,45 C70.7,45.2 70.5,45.3 70.4,45.3 Z" id="Path" fill="#000000" fill-rule="nonzero"></path>
                <path d="M74.1,45.3 L71.6,45.3 C71.4,45.3 71.3,45.2 71.3,45 C71.3,44.8 71.4,44.7 71.6,44.7 L74.1,44.7 C74.3,44.7 74.4,44.8 74.4,45 C74.4,45.2 74.2,45.3 74.1,45.3 Z" id="Path" fill="#000000" fill-rule="nonzero"></path>
                <path d="M27.7,51.6 L13.4,51.6 C13.2,51.6 13.1,51.5 13.1,51.3 C13.1,51.1 13.2,51 13.4,51 L27.7,51 C27.9,51 28,51.1 28,51.3 C28,51.4 27.9,51.6 27.7,51.6 Z" id="Path" fill="#000000" fill-rule="nonzero"></path>
                <path d="M12,51.6 L9.5,51.6 C9.3,51.6 9.2,51.5 9.2,51.3 C9.2,51.1 9.3,51 9.5,51 L12,51 C12.2,51 12.3,51.1 12.3,51.3 C12.3,51.4 12.2,51.6 12,51.6 Z" id="Path" fill="#000000" fill-rule="nonzero"></path>
                <path d="M32.1,53.2 L25.7,53.2 C25.5,53.2 25.4,53.1 25.4,52.9 C25.4,52.7 25.5,52.6 25.7,52.6 L32.1,52.6 C32.3,52.6 32.4,52.7 32.4,52.9 C32.4,53.1 32.2,53.2 32.1,53.2 Z" id="Path" fill="#000000" fill-rule="nonzero"></path>
                <path d="M64.6,43.7 L58.4,43.7 C58.2,43.7 58.1,43.6 58.1,43.4 C58.1,43.2 58.2,43.1 58.4,43.1 L64.6,43.1 C64.8,43.1 64.9,43.2 64.9,43.4 C64.9,43.6 64.8,43.7 64.6,43.7 Z" id="Path" fill="#000000" fill-rule="nonzero"></path>
                <path d="M16,28.7 L7.7,28.7 C7.5,28.7 7.4,28.6 7.4,28.4 C7.4,28.2 7.5,28.1 7.7,28.1 L16,28.1 C16.2,28.1 16.3,28.2 16.3,28.4 C16.3,28.6 16.2,28.7 16,28.7 Z" id="Path" fill="#000000" fill-rule="nonzero"></path>
            </g>
        </g>
    </g>
</svg>