<?xml version="1.0" encoding="UTF-8"?>
<svg width="69px" height="51px" viewBox="0 0 69 51" version="1.1" xmlns="http://www.w3.org/2000/svg" xmlns:xlink="http://www.w3.org/1999/xlink">
    <!-- Generator: Sketch 63.1 (92452) - https://sketch.com -->
    <title>collaboration</title>
    <desc>Created with Sketch.</desc>
    <g id="Page-1" stroke="none" stroke-width="1" fill="none" fill-rule="evenodd">
        <g id="collaboration">
            <path d="M13.6654173,47.7175791 C20.8141893,48.625406 29.5878894,41.2487742 37.5018251,42.4183548 C45.4157609,43.5879354 47.6843899,50 55.5553554,50 C63.4263208,50 65.9940698,40.1187336 65.9940698,34.0389093 C65.9940698,27.9590849 66.6002459,21.9347287 55.5553554,11.9166181 C44.5104649,1.89850748 40.1784395,14.0670599 36.0123077,15.703179 C31.8461759,17.339298 32.3191476,16.4370039 25.7140296,14.0670599 C19.1089116,11.6971159 16.8045914,6.60537661 10.1940905,8.42050145 C3.58358965,10.2356263 -0.283669117,15.8267202 0.016256988,26.9193741 C0.316183093,38.012028 6.51664536,46.8097522 13.6654173,47.7175791 Z" id="Mask-Copy" fill="#FFF4D0"></path>
            <g id="Group" transform="translate(20.000000, 24.000000)" fill-rule="nonzero">
                <g>
                    <path d="M35.4,14.5 C35.5,14.1 35.5,13.8 35.5,13.4 C35.5,11.3 34.1,9.5 32.2,8.8 C31.8,6.6 29.8,4.9 27.5,4.9 C27.2,4.9 26.9,4.9 26.6,5 C26,3 24.2,1.5 22,1.5 C20.8,1.5 19.7,1.9 18.9,2.7 C18,1.6 16.7,0.9 15.2,0.9 C13.2,0.9 11.4,2.2 10.7,3.9 C10.2,3.7 9.7,3.6 9.2,3.6 C6.5,3.6 4.4,5.8 4.4,8.4 C4.4,8.4 4.4,8.4 4.4,8.5 C2.1,8.9 0.4,10.9 0.4,13.2 C0.4,14.3 0.8,15.4 1.4,16.2 C1.3,16.5 1.3,16.8 1.3,17.1 C1.3,19.8 3.5,21.9 6.1,21.9 C7.1,21.9 8,21.6 8.8,21.1 C9.7,21.9 10.8,22.5 12.1,22.5 C13.7,22.5 15.1,21.7 16,20.5 C16.9,21.7 18.3,22.5 19.9,22.5 C21.4,22.5 22.8,21.8 23.7,20.6 C24.6,21.7 26,22.5 27.5,22.5 C28.2,22.5 28.9,22.3 29.5,22 C30.3,22.6 31.2,22.9 32.3,22.9 C35,22.9 37.1,20.7 37.1,18.1 C37.1,16.7 36.4,15.4 35.4,14.5 Z" id="Path" fill="#8C839F"></path>
                    <path d="M32.3,23.3 C31.3,23.3 30.3,23 29.5,22.5 C28.9,22.8 28.2,22.9 27.5,22.9 C26,22.9 24.7,22.3 23.7,21.2 C22.7,22.3 21.4,22.9 19.9,22.9 C18.4,22.9 17,22.2 16,21.1 C15,22.2 13.6,22.9 12.1,22.9 C10.8,22.9 9.7,22.4 8.7,21.6 C7.9,22.1 7,22.3 6,22.3 C3.2,22.3 0.9,20 0.9,17.2 C0.9,16.9 0.9,16.7 1,16.4 C0.3,15.5 -1.42108547e-14,14.5 -1.42108547e-14,13.3 C-1.42108547e-14,10.9 1.7,8.8 4,8.3 C4.1,5.6 6.4,3.4 9.1,3.4 C9.6,3.4 10,3.5 10.5,3.6 C11.3,1.8 13.1,0.6 15.1,0.6 C16.5,0.6 17.9,1.2 18.9,2.2 C19.8,1.5 20.9,1.2 22,1.2 C24.2,1.2 26.1,2.6 26.8,4.6 C27,4.6 27.3,4.5 27.5,4.5 C29.9,4.5 31.9,6.1 32.5,8.4 C34.5,9.1 35.8,11 35.8,13.2 C35.8,13.5 35.8,13.9 35.7,14.2 C36.8,15.2 37.4,16.6 37.4,18 C37.4,21 35.1,23.3 32.3,23.3 Z M29.5,21.8 L29.6,21.9 C30.4,22.4 31.3,22.7 32.2,22.7 C34.7,22.7 36.7,20.7 36.7,18.2 C36.7,16.9 36.1,15.6 35.1,14.7 L35,14.6 L35,14.4 C35.1,14.1 35.1,13.7 35.1,13.4 C35.1,11.5 33.9,9.7 32,9.1 L31.8,9 L31.8,8.8 C31.4,6.7 29.5,5.2 27.4,5.2 C27.1,5.2 26.8,5.2 26.5,5.3 L26.2,5.4 L26.1,5.1 C25.5,3.2 23.8,1.9 21.8,1.9 C20.7,1.9 19.7,2.3 18.9,3 L18.7,3.2 L18.5,3 C17.6,1.9 16.4,1.3 15,1.3 C13.1,1.3 11.5,2.4 10.8,4.1 L10.7,4.4 L10.4,4.3 C9.9,4.1 9.4,4.1 8.9,4.1 C6.4,4.1 4.4,6.1 4.4,8.6 L4.4,8.9 L4.1,8.9 C1.9,9.3 0.4,11.1 0.4,13.3 C0.4,14.3 0.7,15.3 1.4,16.1 L1.5,16.2 L1.5,16.3 C1.5,16.6 1.4,16.8 1.4,17.1 C1.4,19.6 3.4,21.6 5.9,21.6 C6.8,21.6 7.7,21.3 8.4,20.8 L8.6,20.7 L8.8,20.9 C9.6,21.7 10.8,22.2 11.9,22.2 C13.3,22.2 14.7,21.5 15.6,20.3 L16,20 L16.2,20.3 C17,21.5 18.4,22.2 19.9,22.2 C21.3,22.2 22.6,21.6 23.5,20.5 L23.7,20.2 L23.9,20.5 C24.8,21.6 26.1,22.2 27.5,22.2 C28.2,22.2 28.8,22.1 29.4,21.8 L29.5,21.8 Z" id="Shape" fill="#000000"></path>
                </g>
                <path d="M4.5,11.9 C4.3,11.9 4.2,11.8 4.2,11.6 C4.2,9.6 5.8,8 7.8,8 C8,8 8.1,8.1 8.1,8.3 C8.1,8.5 8,8.6 7.8,8.6 C6.2,8.6 4.8,9.9 4.8,11.6 C4.9,11.8 4.7,11.9 4.5,11.9 Z" id="Path" fill="#000000"></path>
                <path d="M7.3,13.3 C7.2,13.3 7.1,13.3 7.1,13.2 C6.5,12.6 5.8,12.3 5,12.3 C4.2,12.3 3.4,12.6 2.9,13.2 C2.8,13.3 2.6,13.3 2.5,13.2 C2.4,13.1 2.4,12.9 2.5,12.8 C3.2,12.1 4.1,11.7 5,11.7 C5.9,11.7 6.9,12.1 7.5,12.8 C7.6,12.9 7.6,13.1 7.5,13.2 C7.5,13.2 7.4,13.3 7.3,13.3 Z" id="Path" fill="#000000"></path>
                <path d="M29.8,19.5 C29.6,19.5 29.5,19.4 29.5,19.2 C29.5,17.6 28.2,16.2 26.5,16.2 C26.3,16.2 26.2,16.1 26.2,15.9 C26.2,15.7 26.3,15.6 26.5,15.6 C28.5,15.6 30.1,17.2 30.1,19.2 C30.1,19.3 30,19.5 29.8,19.5 Z" id="Path" fill="#000000"></path>
                <path d="M16.5,15.4 C16.4,15.4 16.3,15.4 16.3,15.3 C15.1,14.1 13.2,14.1 12.1,15.3 C12,15.4 11.8,15.4 11.7,15.3 C11.6,15.2 11.6,15 11.7,14.9 C13.1,13.5 15.4,13.5 16.8,14.9 C16.9,15 16.9,15.2 16.8,15.3 C16.7,15.4 16.6,15.4 16.5,15.4 Z" id="Path" fill="#000000"></path>
                <path d="M14.9,14.4 C14.7,14.4 14.6,14.3 14.6,14.1 C14.6,12.1 16.2,10.5 18.2,10.5 C18.4,10.5 18.5,10.6 18.5,10.8 C18.5,11 18.4,11.1 18.2,11.1 C16.6,11.1 15.2,12.4 15.2,14.1 C15.2,14.3 15,14.4 14.9,14.4 Z" id="Path" fill="#000000"></path>
                <path d="M8.5,20.9 C7.6,20.9 6.7,20.5 6,19.8 C5.9,19.7 5.9,19.5 6,19.4 C6.1,19.3 6.3,19.3 6.4,19.4 C7.6,20.6 9.5,20.6 10.6,19.4 C10.7,19.3 10.9,19.3 11,19.4 C11.1,19.5 11.1,19.7 11,19.8 C10.4,20.6 9.4,20.9 8.5,20.9 Z" id="Path" fill="#000000"></path>
                <path d="M33.9,17.2 C33.8,17.2 33.7,17.2 33.7,17.1 C33.6,17 33.6,16.8 33.7,16.7 C34.9,15.5 34.9,13.6 33.7,12.5 C33.6,12.4 33.6,12.2 33.7,12.1 C33.8,12 34,12 34.1,12.1 C35.5,13.5 35.5,15.8 34.1,17.2 C34,17.2 34,17.2 33.9,17.2 Z" id="Path" fill="#000000"></path>
                <path d="M12.4,5.4 C12.3,5.4 12.2,5.4 12.2,5.3 C11.6,4.7 10.9,4.4 10.1,4.4 C9.3,4.4 8.5,4.7 8,5.3 C7.9,5.4 7.7,5.4 7.6,5.3 C7.5,5.2 7.5,5 7.6,4.9 C8.3,4.2 9.2,3.8 10.1,3.8 C11.1,3.8 12,4.2 12.6,4.9 C12.7,5 12.7,5.2 12.6,5.3 C12.6,5.4 12.5,5.4 12.4,5.4 Z" id="Path" fill="#000000"></path>
                <path d="M24.2,17 C24,17 23.9,16.9 23.9,16.7 C23.9,16.5 24,16.4 24.2,16.4 C25.8,16.4 27.2,15.1 27.2,13.4 C27.2,13.2 27.3,13.1 27.5,13.1 C27.7,13.1 27.8,13.2 27.8,13.4 C27.8,15.4 26.2,17 24.2,17 Z" id="Path" fill="#000000"></path>
                <path d="M26.5,8.7 C26.3,8.7 26.2,8.6 26.2,8.4 C26.2,6.7 24.9,5.4 23.2,5.4 C23,5.4 22.9,5.3 22.9,5.1 C22.9,4.9 23,4.8 23.2,4.8 C25.2,4.8 26.8,6.4 26.8,8.4 C26.8,8.6 26.7,8.7 26.5,8.7 Z" id="Path" fill="#000000"></path>
                <path d="M28.9,10.2 C28.8,10.2 28.7,10.2 28.7,10.1 C27.5,8.9 25.6,8.9 24.5,10.1 C24.4,10.2 24.2,10.2 24.1,10.1 C24,10 24,9.8 24.1,9.7 C25.5,8.3 27.8,8.3 29.2,9.7 C29.3,9.8 29.3,10 29.2,10.1 C29,10.2 29,10.2 28.9,10.2 Z" id="Path" fill="#000000"></path>
            </g>
            <g id="Group" transform="translate(11.000000, 7.000000)" fill-rule="nonzero">
                <g transform="translate(1.000000, 20.000000)">
                    <path d="M14.8,6.5 L1.7,6.5 C1,6.5 0.4,5.9 0.4,5.2 L0.4,1.7 C0.4,1 1,0.4 1.7,0.4 L14.9,0.4 C15.6,0.4 16.2,1 16.2,1.7 L16.2,5.2 C16.1,5.9 15.5,6.5 14.8,6.5 Z" id="Path" fill="#FFFFFF"></path>
                    <path d="M14.8,6.8 L1.7,6.8 C0.8,6.8 0.1,6.1 0.1,5.2 L0.1,1.7 C0.1,0.8 0.8,0.1 1.7,0.1 L14.9,0.1 C15.8,0.1 16.5,0.8 16.5,1.7 L16.5,5.2 C16.4,6.1 15.7,6.8 14.8,6.8 Z M1.7,0.7 C1.2,0.7 0.7,1.1 0.7,1.7 L0.7,5.2 C0.7,5.7 1.1,6.2 1.7,6.2 L14.9,6.2 C15.4,6.2 15.9,5.8 15.9,5.2 L15.9,1.7 C15.9,1.2 15.5,0.7 14.9,0.7 L1.7,0.7 Z" id="Shape" fill="#000000"></path>
                </g>
                <g>
                    <path d="M17.5,9.2 C17.5,4.4 13.5,0.6 8.6,0.9 C4.4,1.2 1.1,4.6 0.9,8.8 C0.8,10.6 1.3,12.2 2.2,13.6 C3,14.9 3.4,16.5 3.4,18.1 L3.4,20.4 L15,20.4 L15,18 C15,16.5 15.4,14.9 16.2,13.6 C17,12.4 17.5,10.9 17.5,9.2 Z" id="Path" fill="#F9D08E"></path>
                    <path d="M15.3,20.7 L3.2,20.7 L3.2,18.1 C3.2,16.5 2.8,15 2,13.8 C1.1,12.3 0.6,10.6 0.7,8.9 C0.9,4.5 4.3,1 8.7,0.7 C8.9,0.7 9.1,0.7 9.3,0.7 C14,0.7 17.9,4.5 17.9,9.3 C17.9,10.9 17.4,12.5 16.6,13.9 C15.8,15.1 15.4,16.6 15.4,18.1 L15.4,20.7 L15.3,20.7 Z M3.8,20.1 L14.7,20.1 L14.7,18 C14.7,16.3 15.1,14.8 16,13.5 C16.8,12.2 17.2,10.7 17.2,9.2 C17.2,4.8 13.6,1.2 9.2,1.2 C9,1.2 8.8,1.2 8.6,1.2 C4.6,1.5 1.4,4.8 1.2,8.8 C1.1,10.4 1.5,12 2.4,13.4 C3.2,14.7 3.7,16.3 3.7,18 L3.7,20.1 L3.8,20.1 Z" id="Shape" fill="#000000"></path>
                </g>
                <g transform="translate(2.000000, 20.000000)" fill="#000000" id="Rectangle">
                    <rect x="0.6" y="0.4" width="1" height="6.1"></rect>
                    <rect x="1.8" y="0.4" width="1" height="6.1"></rect>
                    <rect x="2.9" y="0.4" width="1" height="6.1"></rect>
                    <rect x="4.1" y="0.4" width="1" height="6.1"></rect>
                    <rect x="5.2" y="0.4" width="1" height="6.1"></rect>
                    <rect x="6.4" y="0.4" width="1" height="6.1"></rect>
                    <rect x="7.5" y="0.4" width="1" height="6.1"></rect>
                    <rect x="8.7" y="0.4" width="1" height="6.1"></rect>
                    <rect x="9.8" y="0.4" width="1" height="6.1"></rect>
                    <rect x="11" y="0.4" width="1" height="6.1"></rect>
                    <rect x="12.1" y="0.4" width="1" height="6.1"></rect>
                    <rect x="13.3" y="0.4" width="1" height="6.1"></rect>
                </g>
                <path d="M16,9.6 C15.8,9.6 15.7,9.5 15.7,9.3 C15.7,5.8 12.8,2.9 9.3,2.9 C9.1,2.9 9,2.8 9,2.6 C9,2.4 9.1,2.3 9.3,2.3 C13.2,2.3 16.3,5.5 16.3,9.3 C16.3,9.5 16.1,9.6 16,9.6 Z" id="Path" fill="#FFFFFF"></path>
                <path d="M9.7,20.3 C9.5,20.3 9.4,20.2 9.4,20 L9.4,16.8 L8.1,16.8 C7.9,16.8 7.8,16.7 7.8,16.5 L7.8,13 C7.8,12.8 7.9,12.7 8.1,12.7 C8.3,12.7 8.4,12.8 8.4,13 L8.4,16.2 L9.7,16.2 C9.9,16.2 10,16.3 10,16.5 L10,20 C10,20.2 9.8,20.3 9.7,20.3 Z" id="Path" fill="#000000"></path>
            </g>
            <path d="M65.7,7.9 L34.5,7.9 C34.3,7.9 34.2,7.8 34.2,7.6 C34.2,7.4 34.3,7.3 34.5,7.3 L65.8,7.3 C66,7.3 66.1,7.4 66.1,7.6 C66.1,7.8 65.9,7.9 65.7,7.9 Z" id="Path" fill="#000000" fill-rule="nonzero"></path>
            <path d="M34.5,10.2 L31.5,10.2 C31.3,10.2 31.2,10.1 31.2,9.9 C31.2,9.7 31.3,9.6 31.5,9.6 L34.5,9.6 C34.7,9.6 34.8,9.7 34.8,9.9 C34.8,10.1 34.6,10.2 34.5,10.2 Z" id="Path" fill="#000000" fill-rule="nonzero"></path>
            <path d="M45.9,10.2 L36.5,10.2 C36.3,10.2 36.2,10.1 36.2,9.9 C36.2,9.7 36.3,9.6 36.5,9.6 L45.9,9.6 C46.1,9.6 46.2,9.7 46.2,9.9 C46.2,10.1 46,10.2 45.9,10.2 Z" id="Path" fill="#000000" fill-rule="nonzero"></path>
            <path d="M64.4,10.2 L48.9,10.2 C48.7,10.2 48.6,10.1 48.6,9.9 C48.6,9.7 48.7,9.6 48.9,9.6 L64.4,9.6 C64.6,9.6 64.7,9.7 64.7,9.9 C64.7,10.1 64.6,10.2 64.4,10.2 Z" id="Path" fill="#000000" fill-rule="nonzero"></path>
            <path d="M39.6,12.8 L36.5,12.8 C36.3,12.8 36.2,12.7 36.2,12.5 C36.2,12.3 36.3,12.2 36.5,12.2 L39.6,12.2 C39.8,12.2 39.9,12.3 39.9,12.5 C39.9,12.7 39.8,12.8 39.6,12.8 Z" id="Path" fill="#000000" fill-rule="nonzero"></path>
            <path d="M57.1,12.8 L41.8,12.8 C41.6,12.8 41.5,12.7 41.5,12.5 C41.5,12.3 41.6,12.2 41.8,12.2 L57.1,12.2 C57.3,12.2 57.4,12.3 57.4,12.5 C57.4,12.7 57.3,12.8 57.1,12.8 Z" id="Path" fill="#000000" fill-rule="nonzero"></path>
            <path d="M30.8,21.8 L29.3,21.8 C29.1,21.8 29,21.7 29,21.5 C29,21.3 29.1,21.2 29.3,21.2 L30.8,21.2 C31,21.2 31.1,21.3 31.1,21.5 C31.1,21.7 31,21.8 30.8,21.8 Z" id="Path" fill="#000000" fill-rule="nonzero"></path>
            <path d="M45.5,21.8 L33,21.8 C32.8,21.8 32.7,21.7 32.7,21.5 C32.7,21.3 32.8,21.2 33,21.2 L45.5,21.2 C45.7,21.2 45.8,21.3 45.8,21.5 C45.8,21.7 45.6,21.8 45.5,21.8 Z" id="Path" fill="#000000" fill-rule="nonzero"></path>
            <path d="M52.7,26.4 L44.2,26.4 C44,26.4 43.9,26.3 43.9,26.1 C43.9,25.9 44,25.8 44.2,25.8 L52.7,25.8 C52.9,25.8 53,25.9 53,26.1 C53,26.3 52.8,26.4 52.7,26.4 Z" id="Path" fill="#000000" fill-rule="nonzero"></path>
            <path d="M67.7,26.4 L54.4,26.4 C54.2,26.4 54.1,26.3 54.1,26.1 C54.1,25.9 54.2,25.8 54.4,25.8 L67.8,25.8 C68,25.8 68.1,25.9 68.1,26.1 C68.1,26.3 67.9,26.4 67.7,26.4 Z" id="Path" fill="#000000" fill-rule="nonzero"></path>
            <path d="M12.9,36.8 L4.5,36.8 C4.3,36.8 4.2,36.7 4.2,36.5 C4.2,36.3 4.3,36.2 4.5,36.2 L12.9,36.2 C13.1,36.2 13.2,36.3 13.2,36.5 C13.2,36.7 13.1,36.8 12.9,36.8 Z" id="Path" fill="#000000" fill-rule="nonzero"></path>
            <path d="M2.9,36.8 L0.8,36.8 C0.6,36.8 0.5,36.7 0.5,36.5 C0.5,36.3 0.6,36.2 0.8,36.2 L2.9,36.2 C3.1,36.2 3.2,36.3 3.2,36.5 C3.2,36.7 3.1,36.8 2.9,36.8 Z" id="Path" fill="#000000" fill-rule="nonzero"></path>
            <path d="M20.2,38.4 L4.5,38.4 C4.3,38.4 4.2,38.3 4.2,38.1 C4.2,37.9 4.3,37.8 4.5,37.8 L20.3,37.8 C20.5,37.8 20.6,37.9 20.6,38.1 C20.6,38.3 20.4,38.4 20.2,38.4 Z" id="Path" fill="#000000" fill-rule="nonzero"></path>
            <g id="Group" transform="translate(15.000000, 0.000000)" fill="#000000" fill-rule="nonzero">
                <path d="M3.6,2.2 L1.2,2.2 C1,2.2 0.9,2.1 0.9,1.9 C0.9,1.7 1,1.6 1.2,1.6 L3.6,1.6 C3.8,1.6 3.9,1.7 3.9,1.9 C3.9,2.1 3.7,2.2 3.6,2.2 Z" id="Path"></path>
                <path d="M2.4,3.4 C2.2,3.4 2.1,3.3 2.1,3.1 L2.1,0.7 C2.1,0.5 2.2,0.4 2.4,0.4 C2.6,0.4 2.7,0.5 2.7,0.7 L2.7,3.1 C2.7,3.3 2.5,3.4 2.4,3.4 Z" id="Path"></path>
            </g>
            <g id="Group" transform="translate(48.000000, 19.000000)" fill="#000000" fill-rule="nonzero">
                <path d="M3,2.5 L0.6,2.5 C0.4,2.5 0.3,2.4 0.3,2.2 C0.3,2 0.4,1.9 0.6,1.9 L3,1.9 C3.2,1.9 3.3,2 3.3,2.2 C3.3,2.4 3.2,2.5 3,2.5 Z" id="Path"></path>
                <path d="M1.8,3.7 C1.6,3.7 1.5,3.6 1.5,3.4 L1.5,1 C1.5,0.8 1.6,0.7 1.8,0.7 C2,0.7 2.1,0.8 2.1,1 L2.1,3.4 C2.1,3.6 2,3.7 1.8,3.7 Z" id="Path"></path>
            </g>
            <g id="Group" transform="translate(37.000000, 3.000000)" fill="#000000" fill-rule="nonzero">
                <path d="M2.9,2.3 L0.5,2.3 C0.3,2.3 0.2,2.2 0.2,2 C0.2,1.8 0.3,1.7 0.5,1.7 L2.9,1.7 C3.1,1.7 3.2,1.8 3.2,2 C3.2,2.2 3,2.3 2.9,2.3 Z" id="Path"></path>
                <path d="M1.7,3.5 C1.5,3.5 1.4,3.4 1.4,3.2 L1.4,0.8 C1.4,0.6 1.5,0.5 1.7,0.5 C1.9,0.5 2,0.6 2,0.8 L2,3.2 C2,3.3 1.8,3.5 1.7,3.5 Z" id="Path"></path>
            </g>
            <g id="Group" transform="translate(14.000000, 47.000000)" fill="#000000" fill-rule="nonzero">
                <path d="M3.4,1.9 L1,1.9 C0.8,1.9 0.7,1.8 0.7,1.6 C0.7,1.4 0.8,1.3 1,1.3 L3.4,1.3 C3.6,1.3 3.7,1.4 3.7,1.6 C3.7,1.8 3.5,1.9 3.4,1.9 Z" id="Path"></path>
                <path d="M2.2,3.1 C2,3.1 1.9,3 1.9,2.8 L1.9,0.4 C1.9,0.2 2,0.1 2.2,0.1 C2.4,0.1 2.5,0.2 2.5,0.4 L2.5,2.8 C2.5,3 2.3,3.1 2.2,3.1 Z" id="Path"></path>
            </g>
            <g id="Group" transform="translate(7.000000, 23.000000)" fill="#000000" fill-rule="nonzero">
                <path d="M3.4,2.3 L1,2.3 C0.8,2.3 0.7,2.2 0.7,2 C0.7,1.8 0.8,1.7 1,1.7 L3.4,1.7 C3.6,1.7 3.7,1.8 3.7,2 C3.7,2.2 3.6,2.3 3.4,2.3 Z" id="Path"></path>
                <path d="M2.2,3.5 C2,3.5 1.9,3.4 1.9,3.2 L1.9,0.8 C1.9,0.6 2,0.5 2.2,0.5 C2.4,0.5 2.5,0.6 2.5,0.8 L2.5,3.2 C2.5,3.3 2.4,3.5 2.2,3.5 Z" id="Path"></path>
            </g>
            <g id="Group" transform="translate(56.000000, 32.000000)" fill="#000000" fill-rule="nonzero">
                <path d="M3.5,1.8 L1.1,1.8 C0.9,1.8 0.8,1.7 0.8,1.5 C0.8,1.3 0.9,1.2 1.1,1.2 L3.5,1.2 C3.7,1.2 3.8,1.3 3.8,1.5 C3.8,1.7 3.7,1.8 3.5,1.8 Z" id="Path"></path>
                <path d="M2.3,3 C2.1,3 2,2.9 2,2.7 L2,0.3 C2,0.1 2.1,0 2.3,0 C2.5,0 2.6,0.1 2.6,0.3 L2.6,2.7 C2.6,2.8 2.5,3 2.3,3 Z" id="Path"></path>
            </g>
        </g>
    </g>
</svg>