<?xml version="1.0" encoding="UTF-8"?>
<svg width="86px" height="55px" viewBox="0 0 86 55" version="1.1" xmlns="http://www.w3.org/2000/svg" xmlns:xlink="http://www.w3.org/1999/xlink">
    <!-- Generator: Sketch 63.1 (92452) - https://sketch.com -->
    <title>Consultanct</title>
    <desc>Created with Sketch.</desc>
    <g id="Page-1" stroke="none" stroke-width="1" fill="none" fill-rule="evenodd">
        <g id="Consultanct">
            <path d="M26.3883906,0.156360754 C47.8467012,1.36526675 44.4240331,11.3681808 55.2970399,12.8349824 C66.1700468,14.3017839 70.5470753,6.50161119 79.5092033,11.3741173 C88.4713314,16.2466234 86.4043285,28.041926 83.5967569,34.3288916 C80.7891853,40.6158573 84.9788001,45.7497061 78.4673451,51.615165 C71.9558902,57.4806239 58.0404906,54.5427566 44.8564074,51.615165 C31.6723242,48.6875734 25.6921415,55.7615105 15.2471646,52.5333083 C4.80218778,49.305106 11.8322972,37.0423674 10.0129888,30.8181919 C8.19368031,24.5940164 0.813189561,25.2147944 0.0642866335,15.0217171 C-0.684616294,4.82863979 4.93007999,-1.05254524 26.3883906,0.156360754 Z" id="Mask" fill="#FFF4D0"></path>
            <g id="Group" transform="translate(10.000000, 7.000000)" fill-rule="nonzero">
                <g transform="translate(6.000000, 0.000000)">
                    <path d="M29.2,4.8 L29.2,36.5 L1.2,36.5 L1.2,0.4 L24.8,0.4 C27.2,0.4 29.2,2.3 29.2,4.8 Z" id="Path" fill="#FFFFFF"></path>
                    <path d="M29.5,36.7 L0.9,36.7 L0.9,5.68434189e-14 L24.8,5.68434189e-14 C27.4,5.68434189e-14 29.5,2.1 29.5,4.7 L29.5,36.7 Z M1.5,36.1 L28.9,36.1 L28.9,4.7 C28.9,2.4 27.1,0.6 24.8,0.6 L1.5,0.6 L1.5,36.1 L1.5,36.1 Z" id="Shape" fill="#000000"></path>
                </g>
                <g>
                    <path d="M31.4,0.4 C27.8,0.4 24.9,3.3 24.9,6.9 L0.7,6.9 C0.7,3.3 3.6,0.4 7.2,0.4 L31.4,0.4 Z" id="Path" fill="#F9D08E"></path>
                    <path d="M25.2,7.1 L0.4,7.1 L0.4,6.8 C0.4,3.1 3.4,0 7.2,0 L31.4,0 L31.4,0.6 C28,0.6 25.2,3.4 25.2,6.8 L25.2,7.1 Z M1,6.5 L24.6,6.5 C24.7,3.9 26.3,1.7 28.6,0.6 L7.2,0.6 C3.9,0.7 1.2,3.3 1,6.5 Z" id="Shape" fill="#000000"></path>
                </g>
                <path d="M31.8,32.6 L10,32.6 C9.8,32.6 9.7,32.5 9.7,32.3 C9.7,32.1 9.8,32 10,32 L31.8,32 C32,32 32.1,32.1 32.1,32.3 C32.1,32.5 32,32.6 31.8,32.6 Z" id="Path" fill="#000000"></path>
                <path d="M31.8,29.7 L10,29.7 C9.8,29.7 9.7,29.6 9.7,29.4 C9.7,29.2 9.8,29.1 10,29.1 L31.8,29.1 C32,29.1 32.1,29.2 32.1,29.4 C32.1,29.6 32,29.7 31.8,29.7 Z" id="Path" fill="#000000"></path>
                <path d="M31.8,26.9 L10,26.9 C9.8,26.9 9.7,26.8 9.7,26.6 C9.7,26.4 9.8,26.3 10,26.3 L31.8,26.3 C32,26.3 32.1,26.4 32.1,26.6 C32.1,26.8 32,26.9 31.8,26.9 Z" id="Path" fill="#000000"></path>
                <path d="M31.8,24 L10,24 C9.8,24 9.7,23.9 9.7,23.7 C9.7,23.5 9.8,23.4 10,23.4 L31.8,23.4 C32,23.4 32.1,23.5 32.1,23.7 C32.1,23.9 32,24 31.8,24 Z" id="Path" fill="#000000"></path>
                <path d="M31.8,21.1 L10,21.1 C9.8,21.1 9.7,21 9.7,20.8 C9.7,20.6 9.8,20.5 10,20.5 L31.8,20.5 C32,20.5 32.1,20.6 32.1,20.8 C32.1,21 32,21.1 31.8,21.1 Z" id="Path" fill="#000000"></path>
                <path d="M31.8,18.3 L10,18.3 C9.8,18.3 9.7,18.2 9.7,18 C9.7,17.8 9.8,17.7 10,17.7 L31.8,17.7 C32,17.7 32.1,17.8 32.1,18 C32.1,18.2 32,18.3 31.8,18.3 Z" id="Path" fill="#000000"></path>
                <path d="M31.8,15.4 L10,15.4 C9.8,15.4 9.7,15.3 9.7,15.1 C9.7,14.9 9.8,14.8 10,14.8 L31.8,14.8 C32,14.8 32.1,14.9 32.1,15.1 C32.1,15.3 32,15.4 31.8,15.4 Z" id="Path" fill="#000000"></path>
                <path d="M31.8,12.5 L10,12.5 C9.8,12.5 9.7,12.4 9.7,12.2 C9.7,12 9.8,11.9 10,11.9 L31.8,11.9 C32,11.9 32.1,12 32.1,12.2 C32.1,12.4 32,12.5 31.8,12.5 Z" id="Path" fill="#000000"></path>
                <path d="M31.8,9.7 L10,9.7 C9.8,9.7 9.7,9.6 9.7,9.4 C9.7,9.2 9.8,9.1 10,9.1 L31.8,9.1 C32,9.1 32.1,9.2 32.1,9.4 C32.1,9.6 32,9.7 31.8,9.7 Z" id="Path" fill="#000000"></path>
            </g>
            <g id="Group" transform="translate(27.000000, 4.000000)" fill-rule="nonzero">
                <g transform="translate(0.000000, 4.000000)">
                    <rect id="Rectangle" fill="#FFFFFF" x="0.4" y="0.5" width="32.2" height="27.3"></rect>
                    <path d="M32.9,28.1 L0.1,28.1 L0.1,0.2 L32.9,0.2 L32.9,28.1 Z M0.7,27.5 L32.3,27.5 L32.3,0.8 L0.7,0.8 L0.7,27.5 L0.7,27.5 Z" id="Shape" fill="#000000"></path>
                </g>
                <g>
                    <path d="M28.9,0.4 L4.2,0.4 C2.1,0.4 0.5,2.1 0.5,4.1 L0.5,4.5 L32.7,4.5 L32.7,4.1 C32.6,2.1 31,0.4 28.9,0.4 Z" id="Path" fill="#180541"></path>
                    <path d="M32.6,4.8 L0.4,4.8 C0.2,4.8 0.1,4.7 0.1,4.5 L0.1,4.1 C0.1,1.9 1.9,0.1 4.1,0.1 L28.8,0.1 C31,0.1 32.8,1.9 32.8,4.1 L32.8,4.5 C32.9,4.7 32.8,4.8 32.6,4.8 Z M0.7,4.2 L32.3,4.2 L32.3,4.1 C32.3,2.2 30.8,0.7 28.9,0.7 L4.2,0.7 C2.3,0.7 0.7,2.3 0.7,4.2 L0.7,4.2 Z" id="Shape" fill="#000000"></path>
                </g>
                <g transform="translate(22.000000, 2.000000)" fill="#FFFFFF" id="Path">
                    <path d="M2.1,0.8 L0.7,0.8 C0.5,0.8 0.4,0.7 0.4,0.5 C0.4,0.3 0.5,0.2 0.7,0.2 L2.1,0.2 C2.3,0.2 2.4,0.3 2.4,0.5 C2.4,0.6 2.3,0.8 2.1,0.8 Z"></path>
                    <path d="M4.4,0.8 L3,0.8 C2.8,0.8 2.7,0.7 2.7,0.5 C2.7,0.3 2.8,0.2 3,0.2 L4.4,0.2 C4.6,0.2 4.7,0.3 4.7,0.5 C4.7,0.6 4.6,0.8 4.4,0.8 Z"></path>
                    <path d="M6.8,0.8 L5.4,0.8 C5.2,0.8 5.1,0.7 5.1,0.5 C5.1,0.3 5.2,0.2 5.4,0.2 L6.8,0.2 C7,0.2 7.1,0.3 7.1,0.5 C7.1,0.6 6.9,0.8 6.8,0.8 Z"></path>
                </g>
                <g transform="translate(2.000000, 7.000000)">
                    <rect id="Rectangle" fill="#8C839F" x="0.8" y="1" width="27.3" height="7"></rect>
                    <path d="M28.4,8.3 L0.5,8.3 L0.5,0.7 L28.4,0.7 L28.4,8.3 Z M1.1,7.7 L27.8,7.7 L27.8,1.3 L1.1,1.3 L1.1,7.7 L1.1,7.7 Z" id="Shape" fill="#000000"></path>
                </g>
                <g transform="translate(2.000000, 16.000000)">
                    <rect id="Rectangle" fill="#F9D08E" x="0.9" y="0.6" width="9.3" height="9.6"></rect>
                    <path d="M10.5,10.5 L0.6,10.5 L0.6,0.3 L10.5,0.3 L10.5,10.5 Z M1.2,9.9 L9.9,9.9 L9.9,0.9 L1.2,0.9 L1.2,9.9 Z" id="Shape" fill="#000000"></path>
                </g>
                <path d="M30.1,16.9 L14.3,16.9 C14.1,16.9 14,16.8 14,16.6 C14,16.4 14.1,16.3 14.3,16.3 L30.1,16.3 C30.3,16.3 30.4,16.4 30.4,16.6 C30.4,16.7 30.2,16.9 30.1,16.9 Z" id="Path" fill="#000000"></path>
                <path d="M30.1,18.5 L14.3,18.5 C14.1,18.5 14,18.4 14,18.2 C14,18 14.1,17.9 14.3,17.9 L30.1,17.9 C30.3,17.9 30.4,18 30.4,18.2 C30.4,18.4 30.2,18.5 30.1,18.5 Z" id="Path" fill="#000000"></path>
                <path d="M30.1,20 L14.3,20 C14.1,20 14,19.9 14,19.7 C14,19.5 14.1,19.4 14.3,19.4 L30.1,19.4 C30.3,19.4 30.4,19.5 30.4,19.7 C30.4,19.9 30.2,20 30.1,20 Z" id="Path" fill="#000000"></path>
                <path d="M30.1,21.6 L14.3,21.6 C14.1,21.6 14,21.5 14,21.3 C14,21.1 14.1,21 14.3,21 L30.1,21 C30.3,21 30.4,21.1 30.4,21.3 C30.4,21.5 30.2,21.6 30.1,21.6 Z" id="Path" fill="#000000"></path>
                <path d="M30.1,23.2 L14.3,23.2 C14.1,23.2 14,23.1 14,22.9 C14,22.7 14.1,22.6 14.3,22.6 L30.1,22.6 C30.3,22.6 30.4,22.7 30.4,22.9 C30.4,23.1 30.2,23.2 30.1,23.2 Z" id="Path" fill="#000000"></path>
                <path d="M30.1,24.8 L14.3,24.8 C14.1,24.8 14,24.7 14,24.5 C14,24.3 14.1,24.2 14.3,24.2 L30.1,24.2 C30.3,24.2 30.4,24.3 30.4,24.5 C30.4,24.7 30.2,24.8 30.1,24.8 Z" id="Path" fill="#000000"></path>
                <path d="M30.1,26.4 L14.3,26.4 C14.1,26.4 14,26.3 14,26.1 C14,25.9 14.1,25.8 14.3,25.8 L30.1,25.8 C30.3,25.8 30.4,25.9 30.4,26.1 C30.4,26.3 30.2,26.4 30.1,26.4 Z" id="Path" fill="#000000"></path>
                <path d="M30.1,28 L2.9,28 C2.7,28 2.6,27.9 2.6,27.7 C2.6,27.5 2.7,27.4 2.9,27.4 L30.1,27.4 C30.3,27.4 30.4,27.5 30.4,27.7 C30.4,27.9 30.2,28 30.1,28 Z" id="Path" fill="#000000"></path>
                <path d="M30.1,29.6 L2.9,29.6 C2.7,29.6 2.6,29.5 2.6,29.3 C2.6,29.1 2.7,29 2.9,29 L30.1,29 C30.3,29 30.4,29.1 30.4,29.3 C30.4,29.5 30.2,29.6 30.1,29.6 Z" id="Path" fill="#000000"></path>
            </g>
            <g id="Group" transform="translate(32.000000, 19.000000)" fill-rule="nonzero">
                <g transform="translate(0.000000, 3.000000)">
                    <path d="M29.3,0.8 L3.7,0.8 C2.3,0.8 1.1,2 1.1,3.4 L1.1,21.4 C1.1,22.8 2.3,24 3.7,24 L29.3,24 C30.7,24 31.9,22.8 31.9,21.4 L31.9,3.4 C31.9,2 30.7,0.8 29.3,0.8 Z" id="Path" fill="#180541"></path>
                    <path d="M29.3,24.3 L3.7,24.3 C2.1,24.3 0.8,23 0.8,21.4 L0.8,3.4 C0.8,1.8 2.1,0.5 3.7,0.5 L29.3,0.5 C30.9,0.5 32.2,1.8 32.2,3.4 L32.2,21.4 C32.2,23 30.9,24.3 29.3,24.3 Z M3.7,1.1 C2.4,1.1 1.4,2.1 1.4,3.4 L1.4,21.4 C1.4,22.7 2.4,23.7 3.7,23.7 L29.3,23.7 C30.6,23.7 31.6,22.7 31.6,21.4 L31.6,3.4 C31.6,2.1 30.6,1.1 29.3,1.1 L3.7,1.1 Z" id="Shape" fill="#000000"></path>
                </g>
                <path d="M31.9,12.2 L1.1,12.2 C0.9,12.2 0.8,12.1 0.8,11.9 C0.8,11.7 0.9,11.6 1.1,11.6 L31.9,11.6 C32.1,11.6 32.2,11.7 32.2,11.9 C32.2,12.1 32,12.2 31.9,12.2 Z" id="Path" fill="#000000"></path>
                <g transform="translate(14.000000, 10.000000)">
                    <rect id="Rectangle" fill="#F9D08E" x="0.8" y="0.2" width="3.3" height="4.5"></rect>
                    <path d="M4.4,5.1 L0.5,5.1 L0.5,0 L4.4,0 L4.4,5.1 Z M1.1,4.5 L3.8,4.5 L3.8,0.6 L1.1,0.6 L1.1,4.5 Z" id="Shape" fill="#000000"></path>
                </g>
                <path d="M22.6,4.1 L10.1,4.1 L10.1,3 C10.1,1.4 11.4,0.2 12.9,0.2 L19.7,0.2 C21.3,0.2 22.5,1.5 22.5,3 L22.5,4.1 L22.6,4.1 Z M10.8,3.5 L22,3.5 L22,3 C22,1.8 21,0.8 19.8,0.8 L13,0.8 C11.8,0.8 10.8,1.8 10.8,3 L10.8,3.5 Z" id="Shape" fill="#000000"></path>
            </g>
            <g id="Group" transform="translate(23.000000, 36.000000)" fill-rule="nonzero">
                <g>
                    <rect id="Rectangle" fill="#8C839F" x="0.3" y="0.7" width="19.5" height="12.7"></rect>
                    <path d="M20.1,13.7 L0,13.7 L0,0.4 L20.1,0.4 L20.1,13.7 Z M0.6,13.1 L19.5,13.1 L19.5,1 L0.6,1 L0.6,13.1 Z" id="Shape" fill="#000000"></path>
                </g>
                <g transform="translate(5.000000, 3.000000)">
                    <g transform="translate(0.000000, 1.000000)">
                        <circle id="Oval" fill="#F9D08E" cx="3.2" cy="3" r="2.5"></circle>
                        <path d="M3.2,5.8 C1.7,5.8 0.4,4.6 0.4,3 C0.4,1.4 1.6,0.2 3.2,0.2 C4.7,0.2 6,1.4 6,3 C6,4.6 4.8,5.8 3.2,5.8 Z M3.2,0.9 C2,0.9 1,1.9 1,3.1 C1,4.3 2,5.3 3.2,5.3 C4.4,5.3 5.4,4.3 5.4,3.1 C5.4,1.8 4.4,0.9 3.2,0.9 Z" id="Shape" fill="#000000"></path>
                    </g>
                    <g transform="translate(1.000000, 0.000000)">
                        <polygon id="Path" fill="#F9D08E" points="8.4 7.2 1 7.2 4.7 0.9"></polygon>
                        <path d="M8.9,7.5 L0.5,7.5 L4.7,0.2 L8.9,7.5 Z M1.5,6.9 L7.8,6.9 L4.6,1.4 L1.5,6.9 Z" id="Shape" fill="#000000"></path>
                    </g>
                </g>
            </g>
            <g id="Group" transform="translate(62.000000, 12.000000)" fill-rule="nonzero">
                <g transform="translate(0.000000, 4.000000)">
                    <rect id="Rectangle" fill="#8C839F" x="0.6" y="0.7" width="2.7" height="25.2"></rect>
                    <path d="M3.2,26.3 L0.5,26.3 C0.3,26.3 0.2,26.2 0.2,26 L0.2,0.8 C0.2,0.6 0.3,0.5 0.5,0.5 L3.2,0.5 C3.4,0.5 3.5,0.6 3.5,0.8 L3.5,26 C3.5,26.1 3.4,26.3 3.2,26.3 Z M0.9,25.7 L3,25.7 L3,1 L0.9,1 L0.9,25.7 Z" id="Shape" fill="#000000"></path>
                </g>
                <g transform="translate(0.000000, 29.000000)">
                    <path d="M1.9,4.8 L1.9,4.8 C1.1,4.8 0.6,4.2 0.6,3.5 L0.6,1 L3.3,1 L3.3,3.6 C3.2,4.2 2.6,4.8 1.9,4.8 Z" id="Path" fill="#FFFFFF"></path>
                    <path d="M1.9,5.1 L1.9,5.1 C1,5.1 0.3,4.4 0.3,3.5 L0.3,1 C0.3,0.8 0.4,0.7 0.6,0.7 L3.3,0.7 C3.5,0.7 3.6,0.8 3.6,1 L3.6,3.6 C3.5,4.4 2.8,5.1 1.9,5.1 Z M0.9,1.3 L0.9,3.6 C0.9,4.2 1.4,4.6 1.9,4.6 L1.9,4.6 C2.5,4.6 2.9,4.1 2.9,3.6 L2.9,1.3 L0.9,1.3 Z" id="Shape" fill="#000000"></path>
                </g>
                <g>
                    <polygon id="Path" fill="#FFFFFF" points="1.8 0.6 0.6 4.7 3.2 4.7"></polygon>
                    <path d="M3.2,5 L0.5,5 C0.4,5 0.3,5 0.3,4.9 C0.2,4.8 0.2,4.7 0.3,4.6 L1.6,0.5 C1.6,0.4 1.8,0.3 1.9,0.3 C2,0.3 2.1,0.4 2.2,0.5 L3.6,4.6 C3.6,4.7 3.6,4.8 3.6,4.9 C3.4,5 3.3,5 3.2,5 Z M1,4.4 L2.8,4.4 L1.8,1.6 L1,4.4 Z" id="Shape" fill="#000000"></path>
                </g>
            </g>
            <path d="M15.7,17 L10.7,17 C10.5,17 10.4,16.9 10.4,16.7 C10.4,16.5 10.5,16.4 10.7,16.4 L15.7,16.4 C15.9,16.4 16,16.5 16,16.7 C16,16.9 15.8,17 15.7,17 Z" id="Path" fill="#000000" fill-rule="nonzero"></path>
            <path d="M9.2,17 L7.7,17 C7.5,17 7.4,16.9 7.4,16.7 C7.4,16.5 7.5,16.4 7.7,16.4 L9.2,16.4 C9.4,16.4 9.5,16.5 9.5,16.7 C9.5,16.9 9.3,17 9.2,17 Z" id="Path" fill="#000000" fill-rule="nonzero"></path>
            <path d="M59.6,1.1 L47.6,1.1 C47.4,1.1 47.3,1 47.3,0.8 C47.3,0.6 47.4,0.5 47.6,0.5 L59.6,0.5 C59.8,0.5 59.9,0.6 59.9,0.8 C59.9,1 59.8,1.1 59.6,1.1 Z" id="Path" fill="#000000" fill-rule="nonzero"></path>
            <path d="M64.8,1.1 L61.4,1.1 C61.2,1.1 61.1,1 61.1,0.8 C61.1,0.6 61.2,0.5 61.4,0.5 L64.8,0.5 C65,0.5 65.1,0.6 65.1,0.8 C65.1,1 64.9,1.1 64.8,1.1 Z" id="Path" fill="#000000" fill-rule="nonzero"></path>
            <path d="M68.1,6.8 L61.3,6.8 C61.1,6.8 61,6.7 61,6.5 C61,6.3 61.1,6.2 61.3,6.2 L68.1,6.2 C68.3,6.2 68.4,6.3 68.4,6.5 C68.4,6.6 68.3,6.8 68.1,6.8 Z" id="Path" fill="#000000" fill-rule="nonzero"></path>
            <path d="M71.5,6.8 L69.9,6.8 C69.7,6.8 69.6,6.7 69.6,6.5 C69.6,6.3 69.7,6.2 69.9,6.2 L71.5,6.2 C71.7,6.2 71.8,6.3 71.8,6.5 C71.8,6.6 71.7,6.8 71.5,6.8 Z" id="Path" fill="#000000" fill-rule="nonzero"></path>
            <path d="M27.4,3.6 L21,3.6 C20.8,3.6 20.7,3.5 20.7,3.3 C20.7,3.1 20.8,3 21,3 L27.4,3 C27.6,3 27.7,3.1 27.7,3.3 C27.7,3.5 27.6,3.6 27.4,3.6 Z" id="Path" fill="#000000" fill-rule="nonzero"></path>
            <path d="M73.9,20.9 L67.3,20.9 C67.1,20.9 67,20.8 67,20.6 C67,20.4 67.1,20.3 67.3,20.3 L73.9,20.3 C74.1,20.3 74.2,20.4 74.2,20.6 C74.2,20.7 74,20.9 73.9,20.9 Z" id="Path" fill="#000000" fill-rule="nonzero"></path>
            <path d="M77.5,20.9 L75.6,20.9 C75.4,20.9 75.3,20.8 75.3,20.6 C75.3,20.4 75.4,20.3 75.6,20.3 L77.5,20.3 C77.7,20.3 77.8,20.4 77.8,20.6 C77.8,20.8 77.6,20.9 77.5,20.9 Z" id="Path" fill="#000000" fill-rule="nonzero"></path>
            <path d="M67.3,48.5 L47.7,48.5 C47.5,48.5 47.4,48.4 47.4,48.2 C47.4,48 47.5,47.9 47.7,47.9 L67.3,47.9 C67.5,47.9 67.6,48 67.6,48.2 C67.6,48.4 67.4,48.5 67.3,48.5 Z" id="Path" fill="#000000" fill-rule="nonzero"></path>
            <path d="M71.5,48.5 L69.4,48.5 C69.2,48.5 69.1,48.4 69.1,48.2 C69.1,48 69.2,47.9 69.4,47.9 L71.5,47.9 C71.7,47.9 71.8,48 71.8,48.2 C71.8,48.4 71.7,48.5 71.5,48.5 Z" id="Path" fill="#000000" fill-rule="nonzero"></path>
            <path d="M31.2,51.7 L17.1,51.7 C16.9,51.7 16.8,51.6 16.8,51.4 C16.8,51.2 16.9,51.1 17.1,51.1 L31.2,51.1 C31.4,51.1 31.5,51.2 31.5,51.4 C31.5,51.6 31.4,51.7 31.2,51.7 Z" id="Path" fill="#000000" fill-rule="nonzero"></path>
            <path d="M35.1,51.7 L33,51.7 C32.8,51.7 32.7,51.6 32.7,51.4 C32.7,51.2 32.8,51.1 33,51.1 L35.1,51.1 C35.3,51.1 35.4,51.2 35.4,51.4 C35.4,51.6 35.3,51.7 35.1,51.7 Z" id="Path" fill="#000000" fill-rule="nonzero"></path>
            <path d="M61.3,53.6 L42.4,53.6 C42.2,53.6 42.1,53.5 42.1,53.3 C42.1,53.1 42.2,53 42.4,53 L61.3,53 C61.5,53 61.6,53.1 61.6,53.3 C61.6,53.5 61.5,53.6 61.3,53.6 Z" id="Path" fill="#000000" fill-rule="nonzero"></path>
            <path d="M65.2,53.6 L63,53.6 C62.8,53.6 62.7,53.5 62.7,53.3 C62.7,53.1 62.8,53 63,53 L65.2,53 C65.4,53 65.5,53.1 65.5,53.3 C65.5,53.5 65.4,53.6 65.2,53.6 Z" id="Path" fill="#000000" fill-rule="nonzero"></path>
            <path d="M67.3,51.1 L58,51.1 C57.8,51.1 57.7,51 57.7,50.8 C57.7,50.6 57.8,50.5 58,50.5 L67.3,50.5 C67.5,50.5 67.6,50.6 67.6,50.8 C67.6,51 67.4,51.1 67.3,51.1 Z" id="Path" fill="#000000" fill-rule="nonzero"></path>
        </g>
    </g>
</svg>