<?xml version="1.0" encoding="UTF-8"?>
<svg width="71px" height="48px" viewBox="0 0 71 48" version="1.1" xmlns="http://www.w3.org/2000/svg" xmlns:xlink="http://www.w3.org/1999/xlink">
    <!-- Generator: Sketch 63.1 (92452) - https://sketch.com -->
    <title>delivery</title>
    <desc>Created with Sketch.</desc>
    <g id="Page-1" stroke="none" stroke-width="1" fill="none" fill-rule="evenodd">
        <g id="delivery">
            <path d="M0.514208944,10.5873991 C-2.43644495,19.9383137 8.21540524,18.7212946 9.56224018,24.1223439 C10.9090751,29.5233932 0.706284682,36.4477466 9.62274922,43.6633614 C18.5392138,50.8789762 29.3023278,41.911675 37.7950794,42.8905586 C46.2878311,43.8694422 51.419403,50.9921085 62.4522828,43.8694422 C73.4851626,36.7467759 71.1631263,22.7719242 69.8674043,16.2030999 C68.5716824,9.63427562 65.4393966,6.10063983 58.7960378,4.63681714 C52.1526789,3.17299446 51.4564264,10.5510449 41.61473,9.90308961 C31.7730335,9.25513433 29.0728991,0 20.4503661,0 C11.8278331,0 3.46486284,1.23648457 0.514208944,10.5873991 Z" id="Mask-Copy-3" fill="#FFF4D0"></path>
            <g id="Group" transform="translate(17.000000, 9.000000)" fill-rule="nonzero">
                <path d="M20.1,1.7 C18.8,0.9 17.2,0.9 15.9,1.7 L0.5,11 L35.4,11 L20.1,1.7 Z" id="Path" fill="#FFFFFF"></path>
                <path d="M19.9,2 L35.3,11.3 L35.6,10.8 L20.2,1.5 C18.8,0.7 17.1,0.7 15.7,1.5 L0.3,10.8 L0.6,11.3 L16,2 C17.2,1.3 18.7,1.3 19.9,2 Z" id="Path" fill="#000000"></path>
            </g>
            <g id="Group" transform="translate(17.000000, 19.000000)" fill-rule="nonzero">
                <rect id="Rectangle" fill="#FFFFFF" x="0.5" y="1.1" width="34.9" height="21.1"></rect>
                <path d="M35.7,0.8 L0.2,0.8 L0.2,22.5 L35.7,22.5 L35.7,0.8 Z M35.1,21.9 L0.8,21.9 L0.8,1.4 L35.1,1.4 L35.1,21.9 Z" id="Shape" fill="#000000"></path>
            </g>
            <path d="M36.9,29.3 L52.2,41.5 L52.6,41 L37.2,28.8 L37.2,28.8 C35.8,28 34.1,28 32.7,28.8 L32.7,28.8 L17.3,41 L17.7,41.5 L33,29.3 C34.2,28.6 35.7,28.6 36.9,29.3 Z" id="Path" fill="#000000" fill-rule="nonzero"></path>
            <rect id="Rectangle" fill="#000000" fill-rule="nonzero" transform="translate(25.061880, 24.809745) rotate(31.125894) translate(-25.061880, -24.809745) " x="16.312223" y="24.5097568" width="17.4993141" height="1"></rect>
            <rect id="Rectangle" fill="#000000" fill-rule="nonzero" transform="translate(44.927220, 24.790445) rotate(-31.125894) translate(-44.927220, -24.790445) " x="36.177563" y="24.4904568" width="17.4993141" height="1"></rect>
            <g id="Group" transform="translate(20.000000, 1.000000)" fill-rule="nonzero">
                <path d="M0.7,21.2 L12.4,28.3 C12.4,28.3 13.3,27.5 14.8,27.5 C16.3,27.5 17.4,28.3 17.4,28.3 L29.3,21.3 L29.3,0.6 L6.1,0.6 C3.1,0.6 0.7,3 0.7,6 L0.7,21.2 L0.7,21.2 Z" id="Path" fill="#8C839F"></path>
                <rect id="Rectangle" fill="#F9D08E" x="16.3" y="9.3" width="9.3" height="9.6"></rect>
                <path d="M25.9,19.2 L16,19.2 L16,9 L25.9,9 L25.9,19.2 Z M16.6,18.6 L25.3,18.6 L25.3,9.6 L16.6,9.6 L16.6,18.6 Z" id="Shape" fill="#000000"></path>
                <g transform="translate(3.000000, 9.000000)" fill="#000000" id="Rectangle">
                    <rect x="0.9" y="0.1" width="11" height="1"></rect>
                    <rect x="0.9" y="1.5" width="11" height="1"></rect>
                    <rect x="0.9" y="2.9" width="11" height="1"></rect>
                    <rect x="0.9" y="4.4" width="11" height="1"></rect>
                    <rect x="0.9" y="5.8" width="11" height="1"></rect>
                    <rect x="0.9" y="7.2" width="11" height="1"></rect>
                    <rect x="0.9" y="8.6" width="11" height="1"></rect>
                    <rect x="0.9" y="10" width="11" height="1"></rect>
                    <rect x="0.9" y="11.4" width="22.1" height="1"></rect>
                    <rect x="0.9" y="12.8" width="22.1" height="1"></rect>
                    <rect x="1.5" y="14.2" width="21" height="1"></rect>
                    <rect x="3.8" y="15.7" width="16.3" height="1"></rect>
                    <rect x="6.2" y="17.1" width="11.6" height="1"></rect>
                </g>
                <path d="M0.4,21.4 L12.3,28.6 L12.5,28.7 L12.7,28.6 C12.7,28.6 13.6,27.9 14.9,27.9 C16.2,27.9 17.4,28.7 17.4,28.7 L17.6,28.8 L29.8,21.6 L29.8,0.4 L6.1,0.4 C2.9,0.4 0.4,3 0.4,6.1 L0.4,21.4 L0.4,21.4 Z M1,6.1 C1,3.3 3.3,1 6.1,1 L29,1 L29,21.3 L17.4,28 C17,27.8 16,27.2 14.7,27.2 C13.5,27.2 12.6,27.7 12.3,27.9 L1,21 L1,6.1 Z" id="Shape" fill="#000000"></path>
                <g transform="translate(5.000000, 0.000000)">
                    <path d="M29.4,5.7 C29.4,2.9 27.1,0.6 24.3,0.6 L0.7,0.6 C3.5,0.6 5.8,2.9 5.8,5.7 L29.4,5.7 Z" id="Path" fill="#180541"></path>
                    <path d="M0.7,0.9 C3.3,0.9 5.5,3.1 5.5,5.7 C5.5,5.9 5.6,6 5.8,6 L29.4,6 C29.4,6 29.4,6 29.4,6 C29.6,6 29.7,5.9 29.7,5.7 C29.7,5.7 29.7,5.7 29.7,5.6 C29.7,2.6 27.3,0.3 24.3,0.3 L0.7,0.3 C0.5,0.3 0.4,0.4 0.4,0.6 C0.4,0.8 0.5,0.9 0.7,0.9 Z M24.3,0.9 C26.8,0.9 28.9,2.9 29.1,5.4 L6.1,5.4 C6,3.4 4.8,1.8 3.2,0.9 L24.3,0.9 Z" id="Shape" fill="#000000"></path>
                </g>
            </g>
            <path d="M6.5,4.6 C6.3,4.6 6.2,4.7 6.2,4.9 C6.2,5.1 6.3,5.2 6.5,5.2 L14.2,5.2 C14.4,5.2 14.5,5.1 14.5,4.9 C14.5,4.7 14.4,4.6 14.2,4.6 L6.5,4.6 Z" id="Path" fill="#000000" fill-rule="nonzero"></path>
            <path d="M15.5,4.6 C15.3,4.6 15.2,4.7 15.2,4.9 C15.2,5.1 15.3,5.2 15.5,5.2 L18.5,5.2 C18.7,5.2 18.8,5.1 18.8,4.9 C18.8,4.7 18.7,4.6 18.5,4.6 L15.5,4.6 Z" id="Path" fill="#000000" fill-rule="nonzero"></path>
            <path d="M9.5,6.4 C9.3,6.4 9.2,6.5 9.2,6.7 C9.2,6.9 9.3,7 9.5,7 L17.2,7 C17.4,7 17.5,6.9 17.5,6.7 C17.5,6.5 17.4,6.4 17.2,6.4 L9.5,6.4 Z" id="Path" fill="#000000" fill-rule="nonzero"></path>
            <path d="M18.4,6.4 C18.2,6.4 18.1,6.5 18.1,6.7 C18.1,6.9 18.2,7 18.4,7 L21.4,7 C21.6,7 21.7,6.9 21.7,6.7 C21.7,6.5 21.6,6.4 21.4,6.4 L18.4,6.4 Z" id="Path" fill="#000000" fill-rule="nonzero"></path>
            <path d="M8.2,22.8 C8,22.8 7.9,22.9 7.9,23.1 C7.9,23.3 8,23.4 8.2,23.4 L15.9,23.4 C16.1,23.4 16.2,23.3 16.2,23.1 C16.2,22.9 16.1,22.8 15.9,22.8 L8.2,22.8 Z" id="Path" fill="#000000" fill-rule="nonzero"></path>
            <path d="M54.3,27.4 C54.5,27.4 54.6,27.3 54.6,27.1 C54.6,26.9 54.5,26.8 54.3,26.8 L49.7,26.8 C49.5,26.8 49.4,26.9 49.4,27.1 C49.4,27.3 49.5,27.4 49.7,27.4 L54.3,27.4 Z" id="Path" fill="#000000" fill-rule="nonzero"></path>
            <path d="M61.9,27.4 C62.1,27.4 62.2,27.3 62.2,27.1 C62.2,26.9 62.1,26.8 61.9,26.8 L55.6,26.8 C55.4,26.8 55.3,26.9 55.3,27.1 C55.3,27.3 55.4,27.4 55.6,27.4 L61.9,27.4 Z" id="Path" fill="#000000" fill-rule="nonzero"></path>
            <path d="M66.2,29 C66.4,29 66.5,28.9 66.5,28.7 C66.5,28.5 66.4,28.4 66.2,28.4 L52.4,28.4 C52.2,28.4 52.1,28.5 52.1,28.7 C52.1,28.9 52.2,29 52.4,29 L66.2,29 Z" id="Path" fill="#000000" fill-rule="nonzero"></path>
            <path d="M62.2,30.6 C62.4,30.6 62.5,30.5 62.5,30.3 C62.5,30.1 62.4,30 62.2,30 L54.7,30 C54.5,30 54.4,30.1 54.4,30.3 C54.4,30.5 54.5,30.6 54.7,30.6 L62.2,30.6 Z" id="Path" fill="#000000" fill-rule="nonzero"></path>
            <path d="M53.6,30.6 C53.8,30.6 53.9,30.5 53.9,30.3 C53.9,30.1 53.8,30 53.6,30 L47.4,30 C47.2,30 47.1,30.1 47.1,30.3 C47.1,30.5 47.2,30.6 47.4,30.6 L53.6,30.6 Z" id="Path" fill="#000000" fill-rule="nonzero"></path>
            <path d="M51.3,29 C51.5,29 51.6,28.9 51.6,28.7 C51.6,28.5 51.5,28.4 51.3,28.4 L49.7,28.4 C49.5,28.4 49.4,28.5 49.4,28.7 C49.4,28.9 49.5,29 49.7,29 L51.3,29 Z" id="Path" fill="#000000" fill-rule="nonzero"></path>
            <path d="M17.2,22.8 C17,22.8 16.9,22.9 16.9,23.1 C16.9,23.3 17,23.4 17.2,23.4 L20.2,23.4 C20.4,23.4 20.5,23.3 20.5,23.1 C20.5,22.9 20.4,22.8 20.2,22.8 L17.2,22.8 Z" id="Path" fill="#000000" fill-rule="nonzero"></path>
            <path d="M3.8,24.5 C3.6,24.5 3.5,24.6 3.5,24.8 C3.5,25 3.6,25.1 3.8,25.1 L12.6,25.1 C12.8,25.1 12.9,25 12.9,24.8 C12.9,24.6 12.8,24.5 12.6,24.5 L3.8,24.5 Z" id="Path" fill="#000000" fill-rule="nonzero"></path>
            <path d="M14.2,24.5 C14,24.5 13.9,24.6 13.9,24.8 C13.9,25 14,25.1 14.2,25.1 L20.2,25.1 C20.4,25.1 20.5,25 20.5,24.8 C20.5,24.6 20.4,24.5 20.2,24.5 L14.2,24.5 Z" id="Path" fill="#000000" fill-rule="nonzero"></path>
            <path d="M8.2,26.2 C8,26.2 7.9,26.3 7.9,26.5 C7.9,26.7 8,26.8 8.2,26.8 L13.9,26.8 C14.1,26.8 14.2,26.7 14.2,26.5 C14.2,26.3 14.1,26.2 13.9,26.2 L8.2,26.2 Z" id="Path" fill="#000000" fill-rule="nonzero"></path>
            <path d="M15.2,26.2 C15,26.2 14.9,26.3 14.9,26.5 C14.9,26.7 15,26.8 15.2,26.8 L20.2,26.8 C20.4,26.8 20.5,26.7 20.5,26.5 C20.5,26.3 20.4,26.2 20.2,26.2 L15.2,26.2 Z" id="Path" fill="#000000" fill-rule="nonzero"></path>
            <path d="M12.4,8.2 C12.2,8.2 12.1,8.3 12.1,8.5 C12.1,8.7 12.2,8.8 12.4,8.8 L20.1,8.8 C20.3,8.8 20.4,8.7 20.4,8.5 C20.4,8.3 20.3,8.2 20.1,8.2 L12.4,8.2 Z" id="Path" fill="#000000" fill-rule="nonzero"></path>
            <path d="M21.4,8.2 C21.2,8.2 21.1,8.3 21.1,8.5 C21.1,8.7 21.2,8.8 21.4,8.8 L24.4,8.8 C24.6,8.8 24.7,8.7 24.7,8.5 C24.7,8.3 24.6,8.2 24.4,8.2 L21.4,8.2 Z" id="Path" fill="#000000" fill-rule="nonzero"></path>
            <path d="M6.9,41.5 L63.1,41.5 C63.3,41.5 63.4,41.4 63.4,41.2 C63.4,41 63.3,40.9 63.1,40.9 L6.9,40.9 C6.7,40.9 6.6,41 6.6,41.2 C6.6,41.4 6.7,41.5 6.9,41.5 Z" id="Path" fill="#000000" fill-rule="nonzero"></path>
            <g id="Group" transform="translate(17.000000, 1.000000)" fill="#FFFFFF" fill-rule="nonzero">
                <path d="M1.9,0.4 L1.9,2.4 C1.9,2.6 2,2.7 2.2,2.7 C2.4,2.7 2.5,2.6 2.5,2.4 L2.5,0.4 C2.5,0.2 2.4,0.1 2.2,0.1 C2,0.1 1.9,0.2 1.9,0.4 Z" id="Path"></path>
                <path d="M1.2,1.1 C1,1.1 0.9,1.2 0.9,1.4 C0.9,1.6 1,1.7 1.2,1.7 L3.2,1.7 C3.4,1.7 3.5,1.6 3.5,1.4 C3.5,1.2 3.4,1.1 3.2,1.1 L1.2,1.1 Z" id="Path"></path>
            </g>
            <g id="Group" transform="translate(42.000000, 44.000000)" fill="#FFFFFF" fill-rule="nonzero">
                <path d="M1.8,3.2 L1.8,1.2 C1.8,1 1.7,0.9 1.5,0.9 C1.3,0.9 1.2,1 1.2,1.2 L1.2,3.2 C1.2,3.4 1.3,3.5 1.5,3.5 C1.7,3.5 1.8,3.3 1.8,3.2 Z" id="Path"></path>
                <path d="M2.5,2.5 C2.7,2.5 2.8,2.4 2.8,2.2 C2.8,2 2.7,1.9 2.5,1.9 L0.5,1.9 C0.3,1.9 0.2,2 0.2,2.2 C0.2,2.4 0.3,2.5 0.5,2.5 L2.5,2.5 Z" id="Path"></path>
            </g>
            <g id="Group" transform="translate(31.000000, 42.000000)" fill="#FFFFFF" fill-rule="nonzero">
                <path d="M2.9,3.9 L2.9,0.8 C2.9,0.6 2.8,0.5 2.6,0.5 C2.4,0.5 2.3,0.6 2.3,0.8 L2.3,3.9 C2.3,4.1 2.4,4.2 2.6,4.2 C2.8,4.2 2.9,4.1 2.9,3.9 Z" id="Path"></path>
                <path d="M4.1,2.6 C4.3,2.6 4.4,2.5 4.4,2.3 C4.4,2.1 4.3,2 4.1,2 L1,2 C0.8,2 0.7,2.1 0.7,2.3 C0.7,2.5 0.8,2.6 1,2.6 L4.1,2.6 Z" id="Path"></path>
            </g>
            <g id="Group" transform="translate(54.000000, 15.000000)" fill="#FFFFFF" fill-rule="nonzero">
                <path d="M2.8,4 L2.8,0.3 C2.8,0.1 2.7,0 2.5,0 C2.3,0 2.2,0.1 2.2,0.3 L2.2,4 C2.2,4.2 2.3,4.3 2.5,4.3 C2.7,4.3 2.8,4.2 2.8,4 Z" id="Path"></path>
                <path d="M4.3,2.5 C4.5,2.5 4.6,2.4 4.6,2.2 C4.6,2 4.5,1.9 4.3,1.9 L0.6,1.9 C0.4,1.9 0.3,2 0.3,2.2 C0.3,2.4 0.4,2.5 0.6,2.5 L4.3,2.5 Z" id="Path"></path>
            </g>
            <g id="Group" transform="translate(10.000000, 13.000000)" fill="#FFFFFF" fill-rule="nonzero">
                <path d="M2.1,1 L2.1,4.6 C2.1,4.8 2.2,4.9 2.4,4.9 C2.6,4.9 2.7,4.8 2.7,4.6 L2.7,1 C2.7,0.8 2.6,0.7 2.4,0.7 C2.2,0.7 2.1,0.8 2.1,1 Z" id="Path"></path>
                <path d="M0.6,2.5 C0.4,2.5 0.3,2.6 0.3,2.8 C0.3,3 0.4,3.1 0.6,3.1 L4.2,3.1 C4.4,3.1 4.5,3 4.5,2.8 C4.5,2.6 4.4,2.5 4.2,2.5 L0.6,2.5 Z" id="Path"></path>
            </g>
            <g id="Group" transform="translate(50.000000, 10.000000)" fill="#FFFFFF" fill-rule="nonzero">
                <path d="M2.3,3.2 L2.3,0.4 C2.3,0.2 2.2,0.1 2,0.1 C1.8,0.1 1.7,0.2 1.7,0.4 L1.7,3.2 C1.7,3.4 1.8,3.5 2,3.5 C2.2,3.5 2.3,3.4 2.3,3.2 Z" id="Path"></path>
                <path d="M3.4,2.1 C3.6,2.1 3.7,2 3.7,1.8 C3.7,1.6 3.6,1.5 3.4,1.5 L0.6,1.5 C0.4,1.5 0.3,1.6 0.3,1.8 C0.3,2 0.4,2.1 0.6,2.1 L3.4,2.1 Z" id="Path"></path>
            </g>
        </g>
    </g>
</svg>