<?xml version="1.0" encoding="UTF-8"?>
<svg width="69px" height="60px" viewBox="0 0 69 60" version="1.1" xmlns="http://www.w3.org/2000/svg" xmlns:xlink="http://www.w3.org/1999/xlink">
    <!-- Generator: Sketch 63.1 (92452) - https://sketch.com -->
    <title>kickoff</title>
    <desc>Created with Sketch.</desc>
    <g id="Page-1" stroke="none" stroke-width="1" fill="none" fill-rule="evenodd">
        <g id="kickoff">
            <path d="M46.1024407,13.9153075 C52.2023931,14.6964229 50.899929,4.38851329 58.4507916,11.0019798 C66.0016541,17.6154463 65.0787673,28.2692942 60.2600906,38.3395233 C57.9911142,43.0813047 45.2690362,65.666151 22.0215243,58.6649525 C-2.63317574,51.2399667 17.6888702,37.4457639 5.10722263,30.1307913 C-6.10596263,23.611443 2.63572562,5.11114985 16.9165342,2.69337394 C39.2289234,-1.08416828 28.8164697,11.701792 46.1024407,13.9153075 Z" id="Mask-Copy-2" fill="#FFF4D0"></path>
            <g id="Group" transform="translate(10.000000, 18.000000)" fill-rule="nonzero">
                <g transform="translate(0.000000, 6.000000)">
                    <path d="M32.1,29.1 L0.4,29.1 L0.4,1.1 L36.5,1.1 L36.5,24.7 C36.5,27.2 34.5,29.1 32.1,29.1 Z" id="Path" fill="#FFFFFF"></path>
                    <path d="M32.1,29.4 L0.1,29.4 L0.1,0.8 L36.8,0.8 L36.8,24.7 C36.8,27.3 34.7,29.4 32.1,29.4 Z M0.7,28.8 L32.1,28.8 C34.4,28.8 36.2,27 36.2,24.7 L36.2,1.4 L0.7,1.4 L0.7,28.8 Z" id="Shape" fill="#000000"></path>
                </g>
                <g transform="translate(29.000000, 0.000000)">
                    <path d="M7.5,31.4 C7.5,27.8 4.6,24.9 1,24.9 L1,0.7 C4.6,0.7 7.5,3.6 7.5,7.2 L7.5,31.4 Z" id="Path" fill="#180541"></path>
                    <path d="M7.8,31.4 L7.2,31.4 C7.2,28 4.4,25.2 1,25.2 L0.7,25.2 L0.7,0.4 L1,0.4 C4.7,0.4 7.8,3.4 7.8,7.2 L7.8,31.4 Z M1.3,24.6 C3.9,24.7 6.1,26.3 7.2,28.6 L7.2,7.2 C7.2,3.9 4.6,1.2 1.3,1 L1.3,24.6 Z" id="Shape" fill="#000000"></path>
                </g>
                <path d="M4.6,32.1 C4.4,32.1 4.3,32 4.3,31.8 L4.3,10 C4.3,9.8 4.4,9.7 4.6,9.7 C4.8,9.7 4.9,9.8 4.9,10 L4.9,31.8 C4.9,32 4.7,32.1 4.6,32.1 Z" id="Path" fill="#000000"></path>
                <path d="M7.4,32.1 C7.2,32.1 7.1,32 7.1,31.8 L7.1,10 C7.1,9.8 7.2,9.7 7.4,9.7 C7.6,9.7 7.7,9.8 7.7,10 L7.7,31.8 C7.7,32 7.6,32.1 7.4,32.1 Z" id="Path" fill="#000000"></path>
                <path d="M10.3,32.1 C10.1,32.1 10,32 10,31.8 L10,10 C10,9.8 10.1,9.7 10.3,9.7 C10.5,9.7 10.6,9.8 10.6,10 L10.6,31.8 C10.6,32 10.5,32.1 10.3,32.1 Z" id="Path" fill="#000000"></path>
                <path d="M13.2,32.1 C13,32.1 12.9,32 12.9,31.8 L12.9,10 C12.9,9.8 13,9.7 13.2,9.7 C13.4,9.7 13.5,9.8 13.5,10 L13.5,31.8 C13.5,32 13.3,32.1 13.2,32.1 Z" id="Path" fill="#000000"></path>
                <path d="M16,32.1 C15.8,32.1 15.7,32 15.7,31.8 L15.7,10 C15.7,9.8 15.8,9.7 16,9.7 C16.2,9.7 16.3,9.8 16.3,10 L16.3,31.8 C16.3,32 16.2,32.1 16,32.1 Z" id="Path" fill="#000000"></path>
                <path d="M18.9,32.1 C18.7,32.1 18.6,32 18.6,31.8 L18.6,10 C18.6,9.8 18.7,9.7 18.9,9.7 C19.1,9.7 19.2,9.8 19.2,10 L19.2,31.8 C19.2,32 19,32.1 18.9,32.1 Z" id="Path" fill="#000000"></path>
                <path d="M21.7,32.1 C21.5,32.1 21.4,32 21.4,31.8 L21.4,10 C21.4,9.8 21.5,9.7 21.7,9.7 C21.9,9.7 22,9.8 22,10 L22,31.8 C22,32 21.9,32.1 21.7,32.1 Z" id="Path" fill="#000000"></path>
                <path d="M24.6,32.1 C24.4,32.1 24.3,32 24.3,31.8 L24.3,10 C24.3,9.8 24.4,9.7 24.6,9.7 C24.8,9.7 24.9,9.8 24.9,10 L24.9,31.8 C24.9,32 24.8,32.1 24.6,32.1 Z" id="Path" fill="#000000"></path>
                <path d="M27.5,32.1 C27.3,32.1 27.2,32 27.2,31.8 L27.2,10 C27.2,9.8 27.3,9.7 27.5,9.7 C27.7,9.7 27.8,9.8 27.8,10 L27.8,31.8 C27.8,32 27.6,32.1 27.5,32.1 Z" id="Path" fill="#000000"></path>
            </g>
            <g id="Group" transform="translate(41.000000, 8.000000)" fill-rule="nonzero">
                <g transform="translate(1.000000, 20.000000)">
                    <path d="M14.9,6.6 L1.7,6.6 C1,6.6 0.4,6 0.4,5.3 L0.4,1.8 C0.4,1.1 1,0.5 1.7,0.5 L14.9,0.5 C15.6,0.5 16.2,1.1 16.2,1.8 L16.2,5.3 C16.2,6 15.6,6.6 14.9,6.6 Z" id="Path" fill="#FFFFFF"></path>
                    <path d="M14.9,6.9 L1.7,6.9 C0.8,6.9 0.1,6.2 0.1,5.3 L0.1,1.8 C0.1,0.9 0.8,0.2 1.7,0.2 L14.9,0.2 C15.8,0.2 16.5,0.9 16.5,1.8 L16.5,5.3 C16.5,6.2 15.8,6.9 14.9,6.9 Z M1.8,0.8 C1.3,0.8 0.8,1.2 0.8,1.8 L0.8,5.3 C0.8,5.8 1.2,6.3 1.8,6.3 L15,6.3 C15.5,6.3 16,5.9 16,5.3 L16,1.8 C16,1.3 15.6,0.8 15,0.8 L1.8,0.8 Z" id="Shape" fill="#000000"></path>
                </g>
                <g>
                    <path d="M17.6,9.4 C17.6,4.6 13.6,0.8 8.7,1.1 C4.5,1.4 1.2,4.8 1,9 C0.9,10.8 1.4,12.4 2.3,13.8 C3.1,15.1 3.5,16.7 3.5,18.3 L3.5,20.6 L15,20.6 L15,18.2 C15,16.7 15.4,15.1 16.2,13.8 C17.2,12.5 17.6,11 17.6,9.4 Z" id="Path" fill="#F9D08E"></path>
                    <path d="M15.4,20.8 L3.3,20.8 L3.3,18.2 C3.3,16.6 2.9,15.1 2.1,13.9 C1.2,12.4 0.7,10.7 0.8,9 C1,4.6 4.4,1.1 8.8,0.8 C9,0.8 9.2,0.8 9.4,0.8 C14.1,0.8 18,4.6 18,9.4 C18,11 17.5,12.6 16.7,14 C15.9,15.2 15.5,16.7 15.5,18.2 L15.5,20.8 L15.4,20.8 Z M3.9,20.2 L14.8,20.2 L14.8,18.1 C14.8,16.4 15.2,14.9 16.1,13.6 C16.9,12.3 17.3,10.9 17.3,9.3 C17.3,4.9 13.7,1.3 9.3,1.3 C9.1,1.3 8.9,1.3 8.7,1.3 C4.7,1.6 1.5,4.9 1.3,8.9 C1.2,10.5 1.6,12.1 2.5,13.5 C3.3,14.8 3.8,16.4 3.8,18.1 L3.8,20.2 L3.9,20.2 Z" id="Shape" fill="#000000"></path>
                </g>
                <g transform="translate(2.000000, 20.000000)" fill="#000000" id="Rectangle">
                    <rect x="0.7" y="0.5" width="1" height="6.1"></rect>
                    <rect x="1.9" y="0.5" width="1" height="6.1"></rect>
                    <rect x="3" y="0.5" width="1" height="6.1"></rect>
                    <rect x="4.2" y="0.5" width="1" height="6.1"></rect>
                    <rect x="5.3" y="0.5" width="1" height="6.1"></rect>
                    <rect x="6.5" y="0.5" width="1" height="6.1"></rect>
                    <rect x="7.6" y="0.5" width="1" height="6.1"></rect>
                    <rect x="8.8" y="0.5" width="1" height="6.1"></rect>
                    <rect x="9.9" y="0.5" width="1" height="6.1"></rect>
                    <rect x="11.1" y="0.5" width="1" height="6.1"></rect>
                    <rect x="12.2" y="0.5" width="1" height="6.1"></rect>
                    <rect x="13.4" y="0.5" width="1" height="6.1"></rect>
                </g>
                <path d="M16.1,9.7 C15.9,9.7 15.8,9.6 15.8,9.4 C15.8,5.9 12.9,3 9.4,3 C9.2,3 9.1,2.9 9.1,2.7 C9.1,2.5 9.2,2.4 9.4,2.4 C13.3,2.4 16.4,5.6 16.4,9.4 C16.4,9.6 16.3,9.7 16.1,9.7 Z" id="Path" fill="#FFFFFF"></path>
                <path d="M9.8,20.5 C9.6,20.5 9.5,20.4 9.5,20.2 L9.5,17 L8.2,17 C8,17 7.9,16.9 7.9,16.7 L7.9,13.2 C7.9,13 8,12.9 8.2,12.9 C8.4,12.9 8.5,13 8.5,13.2 L8.5,16.4 L9.8,16.4 C10,16.4 10.1,16.5 10.1,16.7 L10.1,20.2 C10.1,20.3 10,20.5 9.8,20.5 Z" id="Path" fill="#000000"></path>
            </g>
            <g id="Group" transform="translate(12.000000, 15.000000)" fill-rule="nonzero">
                <g transform="translate(0.000000, 5.000000)">
                    <rect id="Rectangle" fill="#8C839F" x="0.4" y="0.3" width="2.7" height="25.2"></rect>
                    <path d="M3.1,25.8 L0.4,25.8 C0.2,25.8 0.1,25.7 0.1,25.5 L0.1,0.3 C0.1,0.1 0.2,0 0.4,0 L3.1,0 C3.3,0 3.4,0.1 3.4,0.3 L3.4,25.5 C3.4,25.7 3.2,25.8 3.1,25.8 Z M0.7,25.2 L2.8,25.2 L2.8,0.6 L0.7,0.6 L0.7,25.2 Z" id="Shape" fill="#000000"></path>
                </g>
                <g transform="translate(0.000000, 30.000000)">
                    <path d="M1.8,4.4 L1.8,4.4 C1,4.4 0.5,3.8 0.5,3.1 L0.5,0.5 L3.2,0.5 L3.2,3.1 C3.1,3.8 2.5,4.4 1.8,4.4 Z" id="Path" fill="#FFFFFF"></path>
                    <path d="M1.8,4.7 L1.8,4.7 C0.9,4.7 0.2,4 0.2,3.1 L0.2,0.5 C0.2,0.3 0.3,0.2 0.5,0.2 L3.2,0.2 C3.4,0.2 3.5,0.3 3.5,0.5 L3.5,3.1 C3.4,3.9 2.7,4.7 1.8,4.7 Z M0.7,0.8 L0.7,3.1 C0.7,3.7 1.2,4.1 1.7,4.1 L1.7,4.1 C2.3,4.1 2.7,3.6 2.7,3.1 L2.7,0.8 L0.7,0.8 Z" id="Shape" fill="#000000"></path>
                </g>
                <g>
                    <polygon id="Path" fill="#FFFFFF" points="1.7 1.2 0.4 5.3 3.1 5.3"></polygon>
                    <path d="M3.1,5.6 L0.4,5.6 C0.3,5.6 0.2,5.6 0.2,5.5 C0.2,5.4 0.1,5.3 0.2,5.2 L1.5,1.1 C1.5,1 1.7,0.9 1.8,0.9 C1.8,0.9 1.8,0.9 1.8,0.9 C1.9,0.9 2,1 2.1,1.1 L3.5,5.2 C3.5,5.3 3.5,5.4 3.5,5.5 C3.5,5.6 3.2,5.6 3.1,5.6 Z M0.8,5 L2.6,5 L1.6,2.2 L0.8,5 Z" id="Shape" fill="#000000"></path>
                </g>
            </g>
            <g id="Group" transform="translate(18.000000, 8.000000)" fill-rule="nonzero">
                <g>
                    <rect id="Rectangle" fill="#F9D08E" x="1.2" y="0.9" width="5.4" height="39.6"></rect>
                    <path d="M6.9,40.8 L0.9,40.8 L0.9,0.6 L6.9,0.6 L6.9,40.8 Z M1.5,40.2 L6.3,40.2 L6.3,1.2 L1.5,1.2 L1.5,40.2 Z" id="Shape" fill="#000000"></path>
                </g>
                <path d="M6.6,3.5 L5.2,3.5 C5,3.5 4.9,3.4 4.9,3.2 C4.9,3 5,2.9 5.2,2.9 L6.6,2.9 C6.8,2.9 6.9,3 6.9,3.2 C6.9,3.4 6.7,3.5 6.6,3.5 Z" id="Path" fill="#000000"></path>
                <path d="M6.6,6.4 L5.2,6.4 C5,6.4 4.9,6.3 4.9,6.1 C4.9,5.9 5,5.8 5.2,5.8 L6.6,5.8 C6.8,5.8 6.9,5.9 6.9,6.1 C6.9,6.3 6.7,6.4 6.6,6.4 Z" id="Path" fill="#000000"></path>
                <path d="M6.6,9.3 L5.2,9.3 C5,9.3 4.9,9.2 4.9,9 C4.9,8.8 5,8.7 5.2,8.7 L6.6,8.7 C6.8,8.7 6.9,8.8 6.9,9 C6.9,9.2 6.7,9.3 6.6,9.3 Z" id="Path" fill="#000000"></path>
                <path d="M6.6,12.2 L5.2,12.2 C5,12.2 4.9,12.1 4.9,11.9 C4.9,11.7 5,11.6 5.2,11.6 L6.6,11.6 C6.8,11.6 6.9,11.7 6.9,11.9 C6.9,12.1 6.7,12.2 6.6,12.2 Z" id="Path" fill="#000000"></path>
                <path d="M6.6,15 L5.2,15 C5,15 4.9,14.9 4.9,14.7 C4.9,14.5 5,14.4 5.2,14.4 L6.6,14.4 C6.8,14.4 6.9,14.5 6.9,14.7 C6.9,14.9 6.7,15 6.6,15 Z" id="Path" fill="#000000"></path>
                <path d="M6.6,17.9 L5.2,17.9 C5,17.9 4.9,17.8 4.9,17.6 C4.9,17.4 5,17.3 5.2,17.3 L6.6,17.3 C6.8,17.3 6.9,17.4 6.9,17.6 C6.9,17.8 6.7,17.9 6.6,17.9 Z" id="Path" fill="#000000"></path>
                <path d="M6.6,20.8 L5.2,20.8 C5,20.8 4.9,20.7 4.9,20.5 C4.9,20.3 5,20.2 5.2,20.2 L6.6,20.2 C6.8,20.2 6.9,20.3 6.9,20.5 C6.9,20.7 6.7,20.8 6.6,20.8 Z" id="Path" fill="#000000"></path>
                <path d="M6.6,23.7 L5.2,23.7 C5,23.7 4.9,23.6 4.9,23.4 C4.9,23.2 5,23.1 5.2,23.1 L6.6,23.1 C6.8,23.1 6.9,23.2 6.9,23.4 C6.9,23.5 6.7,23.7 6.6,23.7 Z" id="Path" fill="#000000"></path>
                <path d="M6.6,26.6 L5.2,26.6 C5,26.6 4.9,26.5 4.9,26.3 C4.9,26.1 5,26 5.2,26 L6.6,26 C6.8,26 6.9,26.1 6.9,26.3 C6.9,26.4 6.7,26.6 6.6,26.6 Z" id="Path" fill="#000000"></path>
                <path d="M6.6,29.4 L5.2,29.4 C5,29.4 4.9,29.3 4.9,29.1 C4.9,28.9 5,28.8 5.2,28.8 L6.6,28.8 C6.8,28.8 6.9,28.9 6.9,29.1 C6.9,29.3 6.7,29.4 6.6,29.4 Z" id="Path" fill="#000000"></path>
                <path d="M6.6,32.3 L5.2,32.3 C5,32.3 4.9,32.2 4.9,32 C4.9,31.8 5,31.7 5.2,31.7 L6.6,31.7 C6.8,31.7 6.9,31.8 6.9,32 C6.9,32.2 6.7,32.3 6.6,32.3 Z" id="Path" fill="#000000"></path>
                <path d="M6.6,35.2 L5.2,35.2 C5,35.2 4.9,35.1 4.9,34.9 C4.9,34.7 5,34.6 5.2,34.6 L6.6,34.6 C6.8,34.6 6.9,34.7 6.9,34.9 C6.9,35.1 6.7,35.2 6.6,35.2 Z" id="Path" fill="#000000"></path>
                <path d="M6.6,38.1 L5.2,38.1 C5,38.1 4.9,38 4.9,37.8 C4.9,37.6 5,37.5 5.2,37.5 L6.6,37.5 C6.8,37.5 6.9,37.6 6.9,37.8 C6.9,38 6.7,38.1 6.6,38.1 Z" id="Path" fill="#000000"></path>
            </g>
            <g id="Group" transform="translate(35.000000, 0.000000)" fill="#FFFFFF" fill-rule="nonzero">
                <path d="M3.2,2.5 L0.8,2.5 C0.6,2.5 0.5,2.4 0.5,2.2 C0.5,2 0.6,1.9 0.8,1.9 L3.2,1.9 C3.4,1.9 3.5,2 3.5,2.2 C3.5,2.4 3.3,2.5 3.2,2.5 Z" id="Path"></path>
                <path d="M2,3.8 C1.8,3.8 1.7,3.7 1.7,3.5 L1.7,1 C1.7,0.8 1.8,0.7 2,0.7 C2.2,0.7 2.3,0.8 2.3,1 L2.3,3.4 C2.3,3.6 2.1,3.8 2,3.8 Z" id="Path"></path>
            </g>
            <g id="Group" transform="translate(49.000000, 39.000000)" fill="#FFFFFF" fill-rule="nonzero">
                <path d="M3,2.4 L0.6,2.4 C0.4,2.4 0.3,2.3 0.3,2.1 C0.3,1.9 0.4,1.8 0.6,1.8 L3,1.8 C3.2,1.8 3.3,1.9 3.3,2.1 C3.3,2.3 3.2,2.4 3,2.4 Z" id="Path"></path>
                <path d="M1.8,3.6 C1.6,3.6 1.5,3.5 1.5,3.3 L1.5,0.9 C1.5,0.7 1.6,0.6 1.8,0.6 C2,0.6 2.1,0.7 2.1,0.9 L2.1,3.3 C2.1,3.5 2,3.6 1.8,3.6 Z" id="Path"></path>
            </g>
            <g id="Group" transform="translate(30.000000, 19.000000)" fill="#FFFFFF" fill-rule="nonzero">
                <path d="M3,2.5 L0.6,2.5 C0.4,2.5 0.3,2.4 0.3,2.2 C0.3,2 0.4,1.9 0.6,1.9 L3,1.9 C3.2,1.9 3.3,2 3.3,2.2 C3.3,2.4 3.1,2.5 3,2.5 Z" id="Path"></path>
                <path d="M1.7,3.7 C1.5,3.7 1.4,3.6 1.4,3.4 L1.4,1 C1.4,0.8 1.5,0.7 1.7,0.7 C1.9,0.7 2,0.8 2,1 L2,3.4 C2,3.5 1.9,3.7 1.7,3.7 Z" id="Path"></path>
            </g>
            <g id="Group" transform="translate(27.000000, 9.000000)" fill="#FFFFFF" fill-rule="nonzero">
                <path d="M2.7,2 L0.3,2 C0.1,2 0,1.9 0,1.7 C0,1.5 0.1,1.4 0.3,1.4 L2.7,1.4 C2.9,1.4 3,1.5 3,1.7 C3,1.9 2.8,2 2.7,2 Z" id="Path"></path>
                <path d="M1.5,3.2 C1.3,3.2 1.2,3.1 1.2,2.9 L1.2,0.5 C1.2,0.3 1.3,0.2 1.5,0.2 C1.7,0.2 1.8,0.3 1.8,0.5 L1.8,2.9 C1.8,3.1 1.6,3.2 1.5,3.2 Z" id="Path"></path>
            </g>
            <g id="Group" transform="translate(58.000000, 38.000000)" fill="#FFFFFF" fill-rule="nonzero">
                <path d="M2.9,2.2 L0.5,2.2 C0.3,2.2 0.2,2.1 0.2,1.9 C0.2,1.7 0.3,1.6 0.5,1.6 L2.9,1.6 C3.1,1.6 3.2,1.7 3.2,1.9 C3.2,2.1 3.1,2.2 2.9,2.2 Z" id="Path"></path>
                <path d="M1.7,3.4 C1.5,3.4 1.4,3.3 1.4,3.1 L1.4,0.7 C1.4,0.5 1.5,0.4 1.7,0.4 C1.9,0.4 2,0.5 2,0.7 L2,3.1 C2,3.3 1.9,3.4 1.7,3.4 Z" id="Path"></path>
            </g>
            <g id="Group" transform="translate(35.000000, 11.000000)" fill="#FFFFFF" fill-rule="nonzero">
                <path d="M4.2,2.9 L0.7,2.9 C0.5,2.9 0.4,2.8 0.4,2.6 C0.4,2.4 0.5,2.3 0.7,2.3 L4.2,2.3 C4.4,2.3 4.5,2.4 4.5,2.6 C4.5,2.8 4.4,2.9 4.2,2.9 Z" id="Path"></path>
                <path d="M2.5,4.7 C2.3,4.7 2.2,4.6 2.2,4.4 L2.2,0.9 C2.2,0.7 2.3,0.6 2.5,0.6 C2.7,0.6 2.8,0.7 2.8,0.9 L2.8,4.4 C2.8,4.5 2.6,4.7 2.5,4.7 Z" id="Path"></path>
            </g>
            <g id="Group" transform="translate(47.000000, 48.000000)" fill="#FFFFFF" fill-rule="nonzero">
                <path d="M4.5,3 L1,3 C0.8,3 0.7,2.9 0.7,2.7 C0.7,2.5 0.8,2.4 1,2.4 L4.5,2.4 C4.7,2.4 4.8,2.5 4.8,2.7 C4.8,2.9 4.7,3 4.5,3 Z" id="Path"></path>
                <path d="M2.8,4.7 C2.6,4.7 2.5,4.6 2.5,4.4 L2.5,0.9 C2.5,0.7 2.6,0.6 2.8,0.6 C3,0.6 3.1,0.7 3.1,0.9 L3.1,4.4 C3.1,4.6 2.9,4.7 2.8,4.7 Z" id="Path"></path>
            </g>
            <path d="M15.1,3.8 L12.5,3.8 C12.3,3.8 12.2,3.7 12.2,3.5 C12.2,3.3 12.3,3.2 12.5,3.2 L15.1,3.2 C15.3,3.2 15.4,3.3 15.4,3.5 C15.4,3.7 15.2,3.8 15.1,3.8 Z" id="Path" fill="#000000" fill-rule="nonzero"></path>
            <path d="M26.7,3.8 L16.3,3.8 C16.1,3.8 16,3.7 16,3.5 C16,3.3 16.1,3.2 16.3,3.2 L26.7,3.2 C26.9,3.2 27,3.3 27,3.5 C27,3.7 26.9,3.8 26.7,3.8 Z" id="Path" fill="#000000" fill-rule="nonzero"></path>
            <path d="M11.2,3.8 L8.9,3.8 C8.7,3.8 8.6,3.7 8.6,3.5 C8.6,3.3 8.7,3.2 8.9,3.2 L11.2,3.2 C11.4,3.2 11.5,3.3 11.5,3.5 C11.5,3.7 11.4,3.8 11.2,3.8 Z" id="Path" fill="#000000" fill-rule="nonzero"></path>
            <path d="M30.2,5.2 L21.9,5.2 C21.7,5.2 21.6,5.1 21.6,4.9 C21.6,4.7 21.7,4.6 21.9,4.6 L30.2,4.6 C30.4,4.6 30.5,4.7 30.5,4.9 C30.5,5.1 30.4,5.2 30.2,5.2 Z" id="Path" fill="#000000" fill-rule="nonzero"></path>
            <path d="M34.2,5.2 L31.8,5.2 C31.6,5.2 31.5,5.1 31.5,4.9 C31.5,4.7 31.6,4.6 31.8,4.6 L34.2,4.6 C34.4,4.6 34.5,4.7 34.5,4.9 C34.5,5.1 34.3,5.2 34.2,5.2 Z" id="Path" fill="#000000" fill-rule="nonzero"></path>
            <path d="M58.5,7.6 L44.4,7.6 C44.2,7.6 44.1,7.5 44.1,7.3 C44.1,7.1 44.2,7 44.4,7 L58.5,7 C58.7,7 58.8,7.1 58.8,7.3 C58.8,7.5 58.6,7.6 58.5,7.6 Z" id="Path" fill="#000000" fill-rule="nonzero"></path>
            <path d="M63.1,7.6 L60,7.6 C59.8,7.6 59.7,7.5 59.7,7.3 C59.7,7.1 59.8,7 60,7 L63.1,7 C63.3,7 63.4,7.1 63.4,7.3 C63.4,7.5 63.3,7.6 63.1,7.6 Z" id="Path" fill="#000000" fill-rule="nonzero"></path>
            <path d="M58.5,5.9 L47,5.9 C46.8,5.9 46.7,5.8 46.7,5.6 C46.7,5.4 46.8,5.3 47,5.3 L58.4,5.3 C58.6,5.3 58.7,5.4 58.7,5.6 C58.8,5.8 58.6,5.9 58.5,5.9 Z" id="Path" fill="#000000" fill-rule="nonzero"></path>
            <path d="M62.6,5.9 L60.1,5.9 C59.9,5.9 59.8,5.8 59.8,5.6 C59.8,5.4 59.9,5.3 60.1,5.3 L62.6,5.3 C62.8,5.3 62.9,5.4 62.9,5.6 C62.9,5.8 62.8,5.9 62.6,5.9 Z" id="Path" fill="#000000" fill-rule="nonzero"></path>
            <path d="M64.7,37.1 L49.4,37.1 C49.2,37.1 49.1,37 49.1,36.8 C49.1,36.6 49.2,36.5 49.4,36.5 L64.7,36.5 C64.9,36.5 65,36.6 65,36.8 C65,37 64.9,37.1 64.7,37.1 Z" id="Path" fill="#000000" fill-rule="nonzero"></path>
            <path d="M67.8,37.1 L66,37.1 C65.8,37.1 65.7,37 65.7,36.8 C65.7,36.6 65.8,36.5 66,36.5 L67.8,36.5 C68,36.5 68.1,36.6 68.1,36.8 C68.1,37 68,37.1 67.8,37.1 Z" id="Path" fill="#000000" fill-rule="nonzero"></path>
            <path d="M14.6,13.9 L6.2,13.9 C6,13.9 5.9,13.8 5.9,13.6 C5.9,13.4 6,13.3 6.2,13.3 L14.6,13.3 C14.8,13.3 14.9,13.4 14.9,13.6 C14.9,13.8 14.7,13.9 14.6,13.9 Z" id="Path" fill="#000000" fill-rule="nonzero"></path>
            <path d="M4.8,13.9 L2.5,13.9 C2.3,13.9 2.2,13.8 2.2,13.6 C2.2,13.4 2.3,13.3 2.5,13.3 L4.8,13.3 C5,13.3 5.1,13.4 5.1,13.6 C5.1,13.8 5,13.9 4.8,13.9 Z" id="Path" fill="#000000" fill-rule="nonzero"></path>
            <path d="M10.4,25.4 L3.7,25.4 C3.5,25.4 3.4,25.3 3.4,25.1 C3.4,24.9 3.5,24.8 3.7,24.8 L10.4,24.8 C10.6,24.8 10.7,24.9 10.7,25.1 C10.7,25.3 10.6,25.4 10.4,25.4 Z" id="Path" fill="#000000" fill-rule="nonzero"></path>
            <path d="M10.6,26.7 L7.7,26.7 C7.5,26.7 7.4,26.6 7.4,26.4 C7.4,26.2 7.5,26.1 7.7,26.1 L10.6,26.1 C10.8,26.1 10.9,26.2 10.9,26.4 C10.9,26.6 10.8,26.7 10.6,26.7 Z" id="Path" fill="#000000" fill-rule="nonzero"></path>
            <path d="M35.7,55 L19.1,55 C18.9,55 18.8,54.9 18.8,54.7 C18.8,54.5 18.9,54.4 19.1,54.4 L35.7,54.4 C35.9,54.4 36,54.5 36,54.7 C36,54.9 35.9,55 35.7,55 Z" id="Path" fill="#000000" fill-rule="nonzero"></path>
            <path d="M17.4,55 L15.1,55 C14.9,55 14.8,54.9 14.8,54.7 C14.8,54.5 14.9,54.4 15.1,54.4 L17.4,54.4 C17.6,54.4 17.7,54.5 17.7,54.7 C17.7,54.9 17.6,55 17.4,55 Z" id="Path" fill="#000000" fill-rule="nonzero"></path>
        </g>
    </g>
</svg>