<?xml version="1.0" encoding="UTF-8"?>
<svg width="81px" height="63px" viewBox="0 0 81 63" version="1.1" xmlns="http://www.w3.org/2000/svg" xmlns:xlink="http://www.w3.org/1999/xlink">
    <!-- Generator: Sketch 63.1 (92452) - https://sketch.com -->
    <title>revisions</title>
    <desc>Created with Sketch.</desc>
    <g id="Page-1" stroke="none" stroke-width="1" fill="none" fill-rule="evenodd">
        <g id="revisions">
            <g id="Group">
                <path d="M24.8541818,6.14783199 C45.0649163,7.29079766 41.8412404,16.7480982 52.0820958,18.1348924 C62.3229511,19.5216866 66.4455011,12.1469779 74.8865752,16.7537109 C83.3276493,21.3604439 81.380821,32.5123664 78.7364803,38.4564066 C76.0921396,44.4004469 80.0381721,49.2542676 73.9052902,54.7997924 C67.7724082,60.3453171 54.6660434,57.5676972 42.2484767,54.7997924 C29.83091,52.0318875 24.1984123,58.7199736 14.3607016,55.6678551 C4.52299081,52.6157366 11.144373,41.0218746 9.43083827,35.1371996 C7.71730355,29.2525246 0.765911098,29.839442 0.0605490385,20.2023507 C-0.644813021,10.5652594 4.64344743,5.00486631 24.8541818,6.14783199 Z" id="Mask-Copy-4" fill="#FFF4D0"></path>
                <g transform="translate(20.000000, 24.000000)" fill-rule="nonzero">
                    <g>
                        <path d="M41.3,29 L4.3,29 C2.5,29 1,27.5 1,25.7 L1,4.2 C1,2.4 2.5,0.9 4.3,0.9 L41.3,0.9 C43.1,0.9 44.6,2.4 44.6,4.2 L44.6,25.7 C44.6,27.5 43.2,29 41.3,29 Z" id="Path" fill="#180541"></path>
                        <path d="M41.3,29.3 L4.3,29.3 C2.3,29.3 0.7,27.7 0.7,25.7 L0.7,4.2 C0.7,2.2 2.3,0.6 4.3,0.6 L41.3,0.6 C43.3,0.6 44.9,2.2 44.9,4.2 L44.9,25.7 C44.9,27.7 43.3,29.3 41.3,29.3 Z M4.3,1.2 C2.6,1.2 1.3,2.6 1.3,4.2 L1.3,25.7 C1.3,27.4 2.7,28.7 4.3,28.7 L41.3,28.7 C43,28.7 44.3,27.3 44.3,25.7 L44.3,4.2 C44.3,2.5 42.9,1.2 41.3,1.2 L4.3,1.2 L4.3,1.2 Z" id="Shape" fill="#000000"></path>
                    </g>
                    <g transform="translate(3.000000, 12.000000)">
                        <circle id="Oval" fill="#8C839F" cx="3.3" cy="3.4" r="3"></circle>
                        <path d="M3.3,6.7 C1.5,6.7 0,5.2 0,3.4 C0,1.6 1.5,0.1 3.3,0.1 C5.1,0.1 6.6,1.6 6.6,3.4 C6.6,5.3 5.1,6.7 3.3,6.7 Z M3.3,0.7 C1.8,0.7 0.6,1.9 0.6,3.4 C0.6,4.9 1.8,6.1 3.3,6.1 C4.8,6.1 6,4.9 6,3.4 C6,1.9 4.8,0.7 3.3,0.7 Z" id="Shape" fill="#000000"></path>
                    </g>
                    <g transform="translate(4.000000, 13.000000)">
                        <circle id="Oval" fill="#8C839F" cx="2.3" cy="2.4" r="1.6"></circle>
                        <path d="M2.3,4.4 C1.2,4.4 0.4,3.5 0.4,2.5 C0.4,1.4 1.3,0.6 2.3,0.6 C3.3,0.6 4.2,1.5 4.2,2.5 C4.2,3.5 3.4,4.4 2.3,4.4 Z M2.3,1.1 C1.6,1.1 1,1.7 1,2.4 C1,3.1 1.6,3.7 2.3,3.7 C3,3.7 3.6,3.1 3.6,2.4 C3.6,1.7 3.1,1.1 2.3,1.1 Z" id="Shape" fill="#000000"></path>
                    </g>
                    <g transform="translate(3.000000, 8.000000)">
                        <rect id="Rectangle" fill="#8C839F" x="1.1" y="0.5" width="3.8" height="2"></rect>
                        <path d="M5.2,2.8 L0.8,2.8 L0.8,0.2 L5.2,0.2 L5.2,2.8 Z M1.4,2.2 L4.6,2.2 L4.6,0.8 L1.4,0.8 L1.4,2.2 Z" id="Shape" fill="#000000"></path>
                    </g>
                    <g transform="translate(3.000000, 4.000000)">
                        <rect id="Rectangle" fill="#8C839F" x="1.1" y="0.7" width="3.8" height="2"></rect>
                        <path d="M5.2,3 L0.8,3 L0.8,0.4 L5.2,0.4 L5.2,3 Z M1.4,2.4 L4.6,2.4 L4.6,1 L1.4,1 L1.4,2.4 Z" id="Shape" fill="#000000"></path>
                    </g>
                    <g transform="translate(3.000000, 23.000000)">
                        <rect id="Rectangle" fill="#8C839F" x="1.1" y="0.9" width="3.8" height="2"></rect>
                        <path d="M5.2,3.3 L0.8,3.3 L0.8,0.7 L5.2,0.7 L5.2,3.3 Z M1.4,2.7 L4.6,2.7 L4.6,1.3 L1.4,1.3 L1.4,2.7 Z" id="Shape" fill="#000000"></path>
                    </g>
                    <g transform="translate(3.000000, 19.000000)">
                        <rect id="Rectangle" fill="#8C839F" x="1.1" y="1.2" width="3.8" height="2"></rect>
                        <path d="M5.2,3.5 L0.8,3.5 L0.8,0.9 L5.2,0.9 L5.2,3.5 Z M1.4,2.9 L4.6,2.9 L4.6,1.5 L1.4,1.5 L1.4,2.9 Z" id="Shape" fill="#000000"></path>
                    </g>
                    <g transform="translate(11.000000, 4.000000)">
                        <path d="M27,22 L3.6,22 C2.3,22 1.2,20.9 1.2,19.6 L1.2,3.1 C1.2,1.8 2.3,0.7 3.6,0.7 L27,0.7 C28.3,0.7 29.4,1.8 29.4,3.1 L29.4,19.6 C29.4,20.9 28.3,22 27,22 Z" id="Path" fill="#8C839F"></path>
                        <path d="M27,22.3 L3.6,22.3 C2.1,22.3 0.9,21.1 0.9,19.6 L0.9,3.1 C0.9,1.6 2.1,0.4 3.6,0.4 L27,0.4 C28.5,0.4 29.7,1.6 29.7,3.1 L29.7,19.6 C29.7,21.1 28.5,22.3 27,22.3 Z M3.6,1 C2.5,1 1.5,1.9 1.5,3.1 L1.5,19.6 C1.5,20.7 2.4,21.7 3.6,21.7 L27,21.7 C28.1,21.7 29.1,20.8 29.1,19.6 L29.1,3.1 C29.1,2 28.2,1 27,1 L3.6,1 Z" id="Shape" fill="#000000"></path>
                    </g>
                </g>
                <g transform="translate(52.000000, 0.000000)" fill-rule="nonzero">
                    <g>
                        <rect id="Rectangle" fill="#F9D08E" x="1" y="0.4" width="7.4" height="54.1"></rect>
                        <path d="M8.7,54.9 L0.7,54.9 L0.7,0.2 L8.7,0.2 L8.7,54.9 Z M1.3,54.3 L8.1,54.3 L8.1,0.8 L1.3,0.8 L1.3,54.3 Z" id="Shape" fill="#000000"></path>
                    </g>
                    <path d="M8.4,4 L6.4,4 C6.2,4 6.1,3.9 6.1,3.7 C6.1,3.5 6.2,3.4 6.4,3.4 L8.4,3.4 C8.6,3.4 8.7,3.5 8.7,3.7 C8.7,3.9 8.5,4 8.4,4 Z" id="Path" fill="#000000"></path>
                    <path d="M8.4,7.9 L6.4,7.9 C6.2,7.9 6.1,7.8 6.1,7.6 C6.1,7.4 6.2,7.3 6.4,7.3 L8.4,7.3 C8.6,7.3 8.7,7.4 8.7,7.6 C8.7,7.8 8.5,7.9 8.4,7.9 Z" id="Path" fill="#000000"></path>
                    <path d="M8.4,11.8 L6.4,11.8 C6.2,11.8 6.1,11.7 6.1,11.5 C6.1,11.3 6.2,11.2 6.4,11.2 L8.4,11.2 C8.6,11.2 8.7,11.3 8.7,11.5 C8.7,11.7 8.5,11.8 8.4,11.8 Z" id="Path" fill="#000000"></path>
                    <path d="M8.4,15.8 L6.4,15.8 C6.2,15.8 6.1,15.7 6.1,15.5 C6.1,15.3 6.2,15.2 6.4,15.2 L8.4,15.2 C8.6,15.2 8.7,15.3 8.7,15.5 C8.7,15.6 8.5,15.8 8.4,15.8 Z" id="Path" fill="#000000"></path>
                    <path d="M8.4,19.7 L6.4,19.7 C6.2,19.7 6.1,19.6 6.1,19.4 C6.1,19.2 6.2,19.1 6.4,19.1 L8.4,19.1 C8.6,19.1 8.7,19.2 8.7,19.4 C8.7,19.6 8.5,19.7 8.4,19.7 Z" id="Path" fill="#000000"></path>
                    <path d="M8.4,23.6 L6.4,23.6 C6.2,23.6 6.1,23.5 6.1,23.3 C6.1,23.1 6.2,23 6.4,23 L8.4,23 C8.6,23 8.7,23.1 8.7,23.3 C8.7,23.5 8.5,23.6 8.4,23.6 Z" id="Path" fill="#000000"></path>
                    <path d="M8.4,27.6 L6.4,27.6 C6.2,27.6 6.1,27.5 6.1,27.3 C6.1,27.1 6.2,27 6.4,27 L8.4,27 C8.6,27 8.7,27.1 8.7,27.3 C8.7,27.5 8.5,27.6 8.4,27.6 Z" id="Path" fill="#000000"></path>
                    <path d="M8.4,31.5 L6.4,31.5 C6.2,31.5 6.1,31.4 6.1,31.2 C6.1,31 6.2,30.9 6.4,30.9 L8.4,30.9 C8.6,30.9 8.7,31 8.7,31.2 C8.7,31.4 8.5,31.5 8.4,31.5 Z" id="Path" fill="#000000"></path>
                    <path d="M8.4,35.4 L6.4,35.4 C6.2,35.4 6.1,35.3 6.1,35.1 C6.1,34.9 6.2,34.8 6.4,34.8 L8.4,34.8 C8.6,34.8 8.7,34.9 8.7,35.1 C8.7,35.3 8.5,35.4 8.4,35.4 Z" id="Path" fill="#000000"></path>
                    <path d="M8.4,39.3 L6.4,39.3 C6.2,39.3 6.1,39.2 6.1,39 C6.1,38.8 6.2,38.7 6.4,38.7 L8.4,38.7 C8.6,38.7 8.7,38.8 8.7,39 C8.7,39.2 8.5,39.3 8.4,39.3 Z" id="Path" fill="#000000"></path>
                    <path d="M8.4,43.3 L6.4,43.3 C6.2,43.3 6.1,43.2 6.1,43 C6.1,42.8 6.2,42.7 6.4,42.7 L8.4,42.7 C8.6,42.7 8.7,42.8 8.7,43 C8.7,43.2 8.5,43.3 8.4,43.3 Z" id="Path" fill="#000000"></path>
                    <path d="M8.4,47.2 L6.4,47.2 C6.2,47.2 6.1,47.1 6.1,46.9 C6.1,46.7 6.2,46.6 6.4,46.6 L8.4,46.6 C8.6,46.6 8.7,46.7 8.7,46.9 C8.7,47.1 8.5,47.2 8.4,47.2 Z" id="Path" fill="#000000"></path>
                    <path d="M8.4,51.1 L6.4,51.1 C6.2,51.1 6.1,51 6.1,50.8 C6.1,50.6 6.2,50.5 6.4,50.5 L8.4,50.5 C8.6,50.5 8.7,50.6 8.7,50.8 C8.7,51 8.5,51.1 8.4,51.1 Z" id="Path" fill="#000000"></path>
                </g>
                <g transform="translate(48.000000, 8.000000)" fill-rule="nonzero">
                    <g transform="translate(0.000000, 4.000000)">
                        <rect id="Rectangle" fill="#8C839F" x="0.4" y="0.4" width="2.7" height="25.2"></rect>
                        <path d="M3.1,25.9 L0.4,25.9 C0.2,25.9 0.1,25.8 0.1,25.6 L0.1,0.4 C0.1,0.2 0.2,0.1 0.4,0.1 L3.1,0.1 C3.3,0.1 3.4,0.2 3.4,0.4 L3.4,25.6 C3.4,25.8 3.2,25.9 3.1,25.9 Z M0.7,25.3 L2.8,25.3 L2.8,0.7 L0.7,0.7 L0.7,25.3 Z" id="Shape" fill="#000000"></path>
                    </g>
                    <g transform="translate(0.000000, 29.000000)">
                        <path d="M1.7,4.5 L1.7,4.5 C0.9,4.5 0.4,3.9 0.4,3.2 L0.4,0.6 L3.1,0.6 L3.1,3.2 C3.1,3.9 2.5,4.5 1.7,4.5 Z" id="Path" fill="#FFFFFF"></path>
                        <path d="M1.7,4.8 L1.7,4.8 C0.8,4.8 0.1,4.1 0.1,3.2 L0.1,0.6 C0.1,0.4 0.2,0.3 0.4,0.3 L3.1,0.3 C3.3,0.3 3.4,0.4 3.4,0.6 L3.4,3.2 C3.4,4.1 2.6,4.8 1.7,4.8 Z M0.7,0.9 L0.7,3.2 C0.7,3.8 1.2,4.2 1.7,4.2 L1.7,4.2 C2.3,4.2 2.7,3.7 2.7,3.2 L2.7,0.9 L0.7,0.9 Z" id="Shape" fill="#000000"></path>
                    </g>
                    <g>
                        <polygon id="Path" fill="#FFFFFF" points="1.7 0.3 0.4 4.4 3.1 4.4"></polygon>
                        <path d="M3.1,4.7 L0.4,4.7 C0.3,4.7 0.2,4.7 0.2,4.6 C0.1,4.5 0.1,4.4 0.2,4.3 L1.5,0.2 C1.5,0.1 1.7,-5.68434189e-14 1.8,-5.68434189e-14 C1.9,-5.68434189e-14 2,0.1 2.1,0.2 L3.5,4.3 C3.5,4.4 3.5,4.5 3.5,4.6 C3.2,4.6 3.2,4.7 3.1,4.7 Z M0.8,4.1 L2.6,4.1 L1.6,1.3 L0.8,4.1 Z" id="Shape" fill="#000000"></path>
                    </g>
                </g>
                <g transform="translate(26.000000, 54.000000)" fill-rule="nonzero">
                    <g transform="translate(4.000000, 0.000000)">
                        <rect id="Rectangle" fill="#180541" x="1.1" y="0.4" width="25.2" height="2.7"></rect>
                        <path d="M26.3,3.4 L1.1,3.4 C0.9,3.4 0.8,3.3 0.8,3.1 L0.8,0.4 C0.8,0.2 0.9,0.1 1.1,0.1 L26.3,0.1 C26.5,0.1 26.6,0.2 26.6,0.4 L26.6,3.1 C26.6,3.2 26.5,3.4 26.3,3.4 Z M1.4,2.8 L26,2.8 L26,0.7 L1.4,0.7 L1.4,2.8 Z" id="Shape" fill="#000000"></path>
                    </g>
                    <g transform="translate(29.000000, 0.000000)">
                        <path d="M5.2,1.7 L5.2,1.7 C5.2,2.5 4.6,3 3.9,3 L1.3,3 L1.3,0.3 L3.9,0.3 C4.6,0.4 5.2,1 5.2,1.7 Z" id="Path" fill="#8C839F"></path>
                        <path d="M3.8,3.4 L1.2,3.4 C1,3.4 0.9,3.3 0.9,3.1 L0.9,0.4 C0.9,0.2 1,0.1 1.2,0.1 L3.8,0.1 C4.7,0.1 5.4,0.8 5.4,1.7 L5.4,1.7 C5.5,2.6 4.7,3.4 3.8,3.4 Z M1.6,2.8 L3.9,2.8 C4.5,2.8 4.9,2.3 4.9,1.8 L4.9,1.8 C4.9,1.2 4.4,0.8 3.9,0.8 L1.6,0.8 L1.6,2.8 Z" id="Shape" fill="#000000"></path>
                    </g>
                    <g>
                        <polygon id="Path" fill="#8C839F" points="1 1.8 5.1 3.1 5.1 0.4"></polygon>
                        <path d="M5.1,3.4 C5,3.4 5,3.3 5.1,3.4 L0.9,2.1 C0.8,2.1 0.7,1.9 0.7,1.8 C0.7,1.7 0.8,1.6 0.9,1.5 L5,0.1 C5.1,0.1 5.2,0.1 5.3,0.1 C5.4,0.1 5.4,0.2 5.4,0.3 L5.4,3 C5.4,3.1 5.4,3.2 5.3,3.2 C5.2,3.3 5.1,3.4 5.1,3.4 Z M1.9,1.8 L4.7,2.7 L4.7,0.9 L1.9,1.8 Z" id="Shape" fill="#000000"></path>
                    </g>
                </g>
                <path d="M33.8,16.3 L13.6,16.3 C13.4,16.3 13.3,16.2 13.3,16 C13.3,15.8 13.4,15.7 13.6,15.7 L33.8,15.7 C34,15.7 34.1,15.8 34.1,16 C34.1,16.2 33.9,16.3 33.8,16.3 Z" id="Path" fill="#000000" fill-rule="nonzero"></path>
                <path d="M24,18.5 L11.4,18.5 C11.2,18.5 11.1,18.4 11.1,18.2 C11.1,18 11.2,17.9 11.4,17.9 L24,17.9 C24.2,17.9 24.3,18 24.3,18.2 C24.3,18.4 24.2,18.5 24,18.5 Z" id="Path" fill="#000000" fill-rule="nonzero"></path>
                <path d="M27.9,18.5 L26,18.5 C25.8,18.5 25.7,18.4 25.7,18.2 C25.7,18 25.8,17.9 26,17.9 L27.9,17.9 C28.1,17.9 28.2,18 28.2,18.2 C28.2,18.4 28.1,18.5 27.9,18.5 Z" id="Path" fill="#000000" fill-rule="nonzero"></path>
                <path d="M69.1,19.7 L61.9,19.7 C61.7,19.7 61.6,19.6 61.6,19.4 C61.6,19.2 61.7,19.1 61.9,19.1 L69.1,19.1 C69.3,19.1 69.4,19.2 69.4,19.4 C69.4,19.6 69.2,19.7 69.1,19.7 Z" id="Path" fill="#000000" fill-rule="nonzero"></path>
                <path d="M71.9,19.7 L70.4,19.7 C70.2,19.7 70.1,19.6 70.1,19.4 C70.1,19.2 70.2,19.1 70.4,19.1 L71.9,19.1 C72.1,19.1 72.2,19.2 72.2,19.4 C72.2,19.6 72.1,19.7 71.9,19.7 Z" id="Path" fill="#000000" fill-rule="nonzero"></path>
                <path d="M20.9,33.2 L10.7,33.2 C10.5,33.2 10.4,33.1 10.4,32.9 C10.4,32.7 10.5,32.6 10.7,32.6 L20.9,32.6 C21.1,32.6 21.2,32.7 21.2,32.9 C21.2,33.1 21.1,33.2 20.9,33.2 Z" id="Path" fill="#000000" fill-rule="nonzero"></path>
                <path d="M18.2,35.4 L15.2,35.4 C15,35.4 14.9,35.3 14.9,35.1 C14.9,34.9 15,34.8 15.2,34.8 L18.2,34.8 C18.4,34.8 18.5,34.9 18.5,35.1 C18.5,35.3 18.3,35.4 18.2,35.4 Z" id="Path" fill="#000000" fill-rule="nonzero"></path>
                <path d="M69.1,37.9 L64.7,37.9 C64.5,37.9 64.4,37.8 64.4,37.6 C64.4,37.4 64.5,37.3 64.7,37.3 L69.1,37.3 C69.3,37.3 69.4,37.4 69.4,37.6 C69.4,37.8 69.2,37.9 69.1,37.9 Z" id="Path" fill="#000000" fill-rule="nonzero"></path>
                <path d="M76.2,37.9 L70.5,37.9 C70.3,37.9 70.2,37.8 70.2,37.6 C70.2,37.4 70.3,37.3 70.5,37.3 L76.2,37.3 C76.4,37.3 76.5,37.4 76.5,37.6 C76.5,37.8 76.3,37.9 76.2,37.9 Z" id="Path" fill="#000000" fill-rule="nonzero"></path>
                <path d="M71.2,39.3 L64.7,39.3 C64.5,39.3 64.4,39.2 64.4,39 C64.4,38.8 64.5,38.7 64.7,38.7 L71.2,38.7 C71.4,38.7 71.5,38.8 71.5,39 C71.5,39.2 71.3,39.3 71.2,39.3 Z" id="Path" fill="#000000" fill-rule="nonzero"></path>
                <path d="M40.3,59.4 L33.4,59.4 C33.2,59.4 33.1,59.3 33.1,59.1 C33.1,58.9 33.2,58.8 33.4,58.8 L40.3,58.8 C40.5,58.8 40.6,58.9 40.6,59.1 C40.6,59.3 40.5,59.4 40.3,59.4 Z" id="Path" fill="#000000" fill-rule="nonzero"></path>
                <path d="M31.1,59.4 L18.9,59.4 C18.7,59.4 18.6,59.3 18.6,59.1 C18.6,58.9 18.7,58.8 18.9,58.8 L31.1,58.8 C31.3,58.8 31.4,58.9 31.4,59.1 C31.4,59.3 31.2,59.4 31.1,59.4 Z" id="Path" fill="#000000" fill-rule="nonzero"></path>
                <path d="M54.2,60.4 L52.3,60.4 C52.1,60.4 52,60.3 52,60.1 C52,59.9 52.1,59.8 52.3,59.8 L54.2,59.8 C54.4,59.8 54.5,59.9 54.5,60.1 C54.5,60.3 54.4,60.4 54.2,60.4 Z" id="Path" fill="#000000" fill-rule="nonzero"></path>
                <path d="M65.5,60.4 L56.3,60.4 C56.1,60.4 56,60.3 56,60.1 C56,59.9 56.1,59.8 56.3,59.8 L65.5,59.8 C65.7,59.8 65.8,59.9 65.8,60.1 C65.8,60.3 65.6,60.4 65.5,60.4 Z" id="Path" fill="#000000" fill-rule="nonzero"></path>
                <g transform="translate(37.000000, 10.000000)" fill="#000000" fill-rule="nonzero" id="Path">
                    <path d="M1.5,2.7 C1.3,2.7 1.2,2.6 1.2,2.4 L1.2,0.3 C1.2,0.1 1.3,-5.68434189e-14 1.5,-5.68434189e-14 C1.7,-5.68434189e-14 1.8,0.1 1.8,0.3 L1.8,2.4 C1.8,2.6 1.7,2.7 1.5,2.7 Z"></path>
                    <path d="M2.5,1.7 L0.4,1.7 C0.2,1.7 0.1,1.6 0.1,1.4 C0.1,1.2 0.2,1.1 0.4,1.1 L2.5,1.1 C2.7,1.1 2.8,1.2 2.8,1.4 C2.8,1.6 2.7,1.7 2.5,1.7 Z"></path>
                </g>
                <g transform="translate(17.000000, 22.000000)" fill="#000000" fill-rule="nonzero" id="Path">
                    <path d="M2.2,2.7 C2,2.7 1.9,2.6 1.9,2.4 L1.9,0.3 C1.9,0.1 2,-5.68434189e-14 2.2,-5.68434189e-14 C2.4,-5.68434189e-14 2.5,0.1 2.5,0.3 L2.5,2.4 C2.5,2.5 2.3,2.7 2.2,2.7 Z"></path>
                    <path d="M3.2,1.6 L1.1,1.6 C0.9,1.6 0.8,1.5 0.8,1.3 C0.8,1.1 0.9,1 1.1,1 L3.2,1 C3.4,1 3.5,1.1 3.5,1.3 C3.5,1.5 3.4,1.6 3.2,1.6 Z"></path>
                </g>
                <g transform="translate(64.000000, 22.000000)" fill="#000000" fill-rule="nonzero" id="Path">
                    <path d="M1.7,2.7 C1.5,2.7 1.4,2.6 1.4,2.4 L1.4,0.3 C1.4,0.1 1.5,-5.68434189e-14 1.7,-5.68434189e-14 C1.9,-5.68434189e-14 2,0.1 2,0.3 L2,2.4 C2,2.5 1.8,2.7 1.7,2.7 Z"></path>
                    <path d="M2.7,1.6 L0.6,1.6 C0.4,1.6 0.3,1.5 0.3,1.3 C0.3,1.1 0.4,1 0.6,1 L2.7,1 C2.9,1 3,1.1 3,1.3 C3,1.5 2.9,1.6 2.7,1.6 Z"></path>
                </g>
                <g transform="translate(38.000000, 19.000000)" fill="#000000" fill-rule="nonzero" id="Path">
                    <path d="M1.5,3.2 C1.3,3.2 1.2,3.1 1.2,2.9 L1.2,0.8 C1.2,0.6 1.3,0.5 1.5,0.5 C1.7,0.5 1.8,0.6 1.8,0.8 L1.8,2.9 C1.9,3.1 1.7,3.2 1.5,3.2 Z"></path>
                    <path d="M2.6,2.2 L0.5,2.2 C0.3,2.2 0.2,2.1 0.2,1.9 C0.2,1.7 0.3,1.6 0.5,1.6 L2.6,1.6 C2.8,1.6 2.9,1.7 2.9,1.9 C2.9,2.1 2.7,2.2 2.6,2.2 Z"></path>
                </g>
                <g transform="translate(43.000000, 59.000000)" fill="#000000" fill-rule="nonzero" id="Path">
                    <path d="M2.3,3.5 C2.1,3.5 2,3.4 2,3.2 L2,1.1 C2,0.9 2.1,0.8 2.3,0.8 C2.5,0.8 2.6,0.9 2.6,1.1 L2.6,3.2 C2.6,3.4 2.5,3.5 2.3,3.5 Z"></path>
                    <path d="M3.3,2.5 L1.2,2.5 C1,2.5 0.9,2.4 0.9,2.2 C0.9,2 1,1.9 1.2,1.9 L3.3,1.9 C3.5,1.9 3.6,2 3.6,2.2 C3.6,2.4 3.5,2.5 3.3,2.5 Z"></path>
                </g>
            </g>
        </g>
    </g>
</svg>