<?xml version="1.0" encoding="UTF-8"?>
<svg width="67px" height="52px" viewBox="0 0 67 52" version="1.1" xmlns="http://www.w3.org/2000/svg" xmlns:xlink="http://www.w3.org/1999/xlink">
    <!-- Generator: Sketch 63.1 (92452) - https://sketch.com -->
    <title>UIUX</title>
    <desc>Created with Sketch.</desc>
    <g id="Page-1" stroke="none" stroke-width="1" fill="none" fill-rule="evenodd">
        <g id="UIUX">
            <g id="Group">
                <path d="M13.6654173,42.7175791 C20.8141893,43.625406 29.5878894,36.2487742 37.5018251,37.4183548 C45.4157609,38.5879354 47.6843899,45 55.5553554,45 C63.4263208,45 65.9940698,35.1187336 65.9940698,29.0389093 C65.9940698,22.9590849 66.6002459,16.9347287 55.5553554,6.91661808 C44.5104649,-3.10149252 40.1784395,9.06705992 36.0123077,10.703179 C31.8461759,12.339298 32.3191476,11.4370039 25.7140296,9.06705992 C19.1089116,6.69711592 16.8045914,1.60537661 10.1940905,3.42050145 C3.58358965,5.2356263 -0.283669117,10.8267202 0.016256988,21.9193741 C0.316183093,33.012028 6.51664536,41.8097522 13.6654173,42.7175791 Z" id="Mask" fill="#FFF4D0"></path>
                <g transform="translate(10.000000, 7.000000)" fill-rule="nonzero">
                    <g>
                        <path d="M41.2,1.1 L4.9,1.1 C2.7,1.1 0.9,2.9 0.9,5.1 L0.9,27.6 C0.9,29.8 2.7,31.6 4.9,31.6 L41.2,31.6 C43.4,31.6 45.2,29.8 45.2,27.6 L45.2,5.1 C45.2,2.9 43.4,1.1 41.2,1.1 Z" id="Path" fill="#FFFFFF"></path>
                        <path d="M41.2,0.8 L4.9,0.8 C2.5,0.8 0.6,2.7 0.6,5.1 L0.6,27.6 C0.6,30 2.5,31.9 4.9,31.9 L41.2,31.9 C43.6,31.9 45.5,30 45.5,27.6 L45.5,5.1 C45.5,2.7 43.5,0.8 41.2,0.8 Z M44.9,27.6 C44.9,29.6 43.2,31.3 41.2,31.3 L4.9,31.3 C2.9,31.3 1.2,29.6 1.2,27.6 L1.2,5.1 C1.2,3.1 2.9,1.4 4.9,1.4 L41.2,1.4 C43.2,1.4 44.9,3.1 44.9,5.1 L44.9,27.6 Z" id="Shape" fill="#000000"></path>
                    </g>
                    <rect id="Rectangle" fill="#000000" x="0.8" y="25.9" width="44.3" height="1"></rect>
                    <g transform="translate(5.000000, 4.000000)">
                        <rect id="Rectangle" fill="#E0E1E2" x="0.3" y="0.7" width="35.5" height="21.5"></rect>
                        <path d="M0,22.5 L36,22.5 L36,0.4 L0,0.4 L0,22.5 Z M0.6,1 L35.5,1 L35.5,21.9 L0.6,21.9 L0.6,1 Z" id="Shape" fill="#000000"></path>
                    </g>
                    <g transform="translate(15.000000, 31.000000)">
                        <polygon id="Path" fill="#E0E1E2" points="2.4 0.6 0.3 7.4 15.7 7.4 13.6 0.6"></polygon>
                        <path d="M13.9,0.5 C13.9,0.4 13.7,0.3 13.6,0.3 L2.4,0.3 C2.3,0.3 2.2,0.4 2.1,0.5 L0,7.2 C0,7.3 0,7.4 0,7.5 C0,7.6 0.1,7.6 0.2,7.6 L15.6,7.6 C15.6,7.6 15.6,7.6 15.6,7.6 C15.8,7.6 15.9,7.5 15.9,7.3 C15.9,7.3 15.9,7.2 15.9,7.2 L13.9,0.5 Z M0.7,7 L2.6,0.9 L13.3,0.9 L15.2,7 L0.7,7 Z" id="Shape" fill="#000000"></path>
                    </g>
                    <g transform="translate(10.000000, 34.000000)">
                        <path d="M23.7,1 L2.3,1 C1.4,1 0.7,1.7 0.7,2.6 L0.7,4.5 C0.7,5.4 1.4,6.1 2.3,6.1 L23.7,6.1 C24.6,6.1 25.3,5.4 25.3,4.5 L25.3,2.6 C25.2,1.7 24.5,1 23.7,1 Z" id="Path" fill="#FFFFFF"></path>
                        <path d="M23.7,0.7 L2.3,0.7 C1.3,0.7 0.4,1.5 0.4,2.6 L0.4,4.5 C0.4,5.5 1.2,6.4 2.3,6.4 L23.7,6.4 C24.7,6.4 25.6,5.6 25.6,4.5 L25.6,2.6 C25.5,1.5 24.7,0.7 23.7,0.7 Z M24.9,4.4 C24.9,5.1 24.3,5.7 23.6,5.7 L2.2,5.7 C1.5,5.7 0.9,5.1 0.9,4.4 L0.9,2.5 C0.9,1.8 1.5,1.2 2.2,1.2 L23.6,1.2 C24.3,1.2 24.9,1.8 24.9,2.5 L24.9,4.4 Z" id="Shape" fill="#000000"></path>
                    </g>
                    <path d="M19.2,8.8 L8.4,8.8 C8.2,8.8 8.1,8.9 8.1,9.1 C8.1,9.3 8.2,9.4 8.4,9.4 L19.2,9.4 C19.4,9.4 19.5,9.3 19.5,9.1 C19.5,8.9 19.4,8.8 19.2,8.8 Z" id="Path" fill="#000000"></path>
                    <path d="M23.9,10.8 L8.4,10.8 C8.2,10.8 8.1,10.9 8.1,11.1 C8.1,11.3 8.2,11.4 8.4,11.4 L23.9,11.4 C24.1,11.4 24.2,11.3 24.2,11.1 C24.2,10.9 24.1,10.8 23.9,10.8 Z" id="Path" fill="#000000"></path>
                    <path d="M18,12.9 L8.5,12.9 C8.3,12.9 8.2,13 8.2,13.2 C8.2,13.4 8.3,13.5 8.5,13.5 L18,13.5 C18.2,13.5 18.3,13.4 18.3,13.2 C18.3,13 18.1,12.9 18,12.9 Z" id="Path" fill="#000000"></path>
                    <path d="M25.6,12.9 L19.9,12.9 C19.7,12.9 19.6,13 19.6,13.2 C19.6,13.4 19.7,13.5 19.9,13.5 L25.6,13.5 C25.8,13.5 25.9,13.4 25.9,13.2 C25.9,13 25.8,12.9 25.6,12.9 Z" id="Path" fill="#000000"></path>
                    <path d="M21.5,15.1 L8.5,15.1 C8.3,15.1 8.2,15.2 8.2,15.4 C8.2,15.6 8.3,15.7 8.5,15.7 L21.5,15.7 C21.7,15.7 21.8,15.6 21.8,15.4 C21.8,15.2 21.6,15.1 21.5,15.1 Z" id="Path" fill="#000000"></path>
                    <path d="M15.3,17.2 L8.4,17.2 C8.2,17.2 8.1,17.3 8.1,17.5 C8.1,17.7 8.2,17.8 8.4,17.8 L15.3,17.8 C15.5,17.8 15.6,17.7 15.6,17.5 C15.6,17.3 15.5,17.2 15.3,17.2 Z" id="Path" fill="#000000"></path>
                    <path d="M28.2,17.2 L17.2,17.2 C17,17.2 16.9,17.3 16.9,17.5 C16.9,17.7 17,17.8 17.2,17.8 L28.2,17.8 C28.4,17.8 28.5,17.7 28.5,17.5 C28.5,17.3 28.4,17.2 28.2,17.2 Z" id="Path" fill="#000000"></path>
                    <path d="M12.3,19.5 L8.4,19.5 C8.2,19.5 8.1,19.6 8.1,19.8 C8.1,20 8.2,20.1 8.4,20.1 L12.3,20.1 C12.5,20.1 12.6,20 12.6,19.8 C12.6,19.6 12.5,19.5 12.3,19.5 Z" id="Path" fill="#000000"></path>
                    <path d="M27.1,19.5 L14.3,19.5 C14.1,19.5 14,19.6 14,19.8 C14,20 14.1,20.1 14.3,20.1 L27.1,20.1 C27.3,20.1 27.4,20 27.4,19.8 C27.4,19.6 27.2,19.5 27.1,19.5 Z" id="Path" fill="#000000"></path>
                </g>
                <g transform="translate(38.000000, 30.000000)" fill-rule="nonzero">
                    <g>
                        <path d="M8.6,0.9 L2.3,0.9 C1.4,0.9 0.7,1.6 0.7,2.5 L0.7,3.6 C0.7,4.5 1.4,5.2 2.3,5.2 L8.6,5.2 C9.5,5.2 10.2,4.5 10.2,3.6 L10.2,2.5 C10.1,1.6 9.4,0.9 8.6,0.9 Z" id="Path" fill="#8C839F"></path>
                        <path d="M8.6,0.6 L2.3,0.6 C1.3,0.6 0.4,1.4 0.4,2.5 L0.4,3.6 C0.4,4.6 1.2,5.5 2.3,5.5 L8.6,5.5 C9.6,5.5 10.5,4.7 10.5,3.6 L10.5,2.5 C10.4,1.4 9.6,0.6 8.6,0.6 Z M9.8,3.5 C9.8,4.2 9.2,4.8 8.5,4.8 L2.2,4.8 C1.5,4.8 0.9,4.2 0.9,3.5 L0.9,2.4 C0.9,1.7 1.5,1.1 2.2,1.1 L8.5,1.1 C9.2,1.1 9.8,1.7 9.8,2.4 L9.8,3.5 Z" id="Shape" fill="#000000"></path>
                    </g>
                    <path d="M3.7,3 L4.6,2.1 C4.7,2 4.7,1.8 4.6,1.7 C4.5,1.6 4.3,1.6 4.2,1.7 L3.1,2.8 C3,2.9 3,3.1 3.1,3.2 L4.2,4.3 C4.3,4.4 4.3,4.4 4.4,4.4 C4.5,4.4 4.6,4.4 4.6,4.3 C4.7,4.2 4.7,4 4.6,3.9 L3.7,3 Z" id="Path" fill="#000000"></path>
                    <path d="M6.8,1.6 C6.7,1.5 6.5,1.5 6.4,1.6 C6.3,1.7 6.3,1.9 6.4,2 L7.3,2.9 L6.4,3.8 C6.3,3.9 6.3,4.1 6.4,4.2 C6.5,4.3 6.5,4.3 6.6,4.3 C6.7,4.3 6.8,4.3 6.8,4.2 L7.9,3.1 C8,3 8,2.8 7.9,2.7 L6.8,1.6 Z" id="Path" fill="#000000"></path>
                </g>
                <g transform="translate(15.000000, 12.000000)" fill-rule="nonzero">
                    <g transform="translate(0.000000, 4.000000)">
                        <rect id="Rectangle" fill="#180541" x="1.2" y="0.7" width="2.7" height="25.2"></rect>
                        <path d="M0.9,26.3 L4.2,26.3 L4.2,0.5 L0.9,0.5 L0.9,26.3 Z M1.5,1 L3.6,1 L3.6,25.6 L1.5,25.6 L1.5,1 Z" id="Shape" fill="#000000"></path>
                    </g>
                    <g transform="translate(0.000000, 29.000000)">
                        <path d="M1.2,3.5 C1.2,4.2 1.8,4.8 2.5,4.8 L2.5,4.8 C3.2,4.8 3.8,4.2 3.8,3.5 L3.8,1 L1.1,1 L1.1,3.5 L1.2,3.5 Z" id="Path" fill="#FFFFFF"></path>
                        <path d="M3.8,0.7 L1.1,0.7 C0.9,0.7 0.8,0.8 0.8,1 L0.8,3.5 C0.8,4.4 1.5,5.1 2.4,5.1 L2.4,5.1 C3.3,5.1 4,4.4 4,3.5 L4,1 C4.1,0.8 4,0.7 3.8,0.7 Z M3.5,3.5 C3.5,4.1 3,4.5 2.5,4.5 L2.5,4.5 C1.9,4.5 1.5,4 1.5,3.5 L1.5,1.2 L3.6,1.2 L3.6,3.5 L3.5,3.5 Z" id="Shape" fill="#000000"></path>
                    </g>
                    <g>
                        <polygon id="Path" fill="#FFFFFF" points="1.2 4.7 3.8 4.7 2.4 0.6"></polygon>
                        <path d="M2.7,0.5 C2.7,0.4 2.5,0.3 2.4,0.3 C2.4,0.3 2.4,0.3 2.4,0.3 C2.3,0.3 2.2,0.4 2.1,0.5 L0.8,4.6 C0.8,4.7 0.8,4.8 0.8,4.9 C0.9,5 0.9,5 1,5 L3.7,5 C3.8,5 3.9,5 3.9,4.9 C3.9,4.8 4,4.7 3.9,4.6 L2.7,0.5 Z M1.6,4.4 L2.5,1.6 L3.5,4.4 L1.6,4.4 Z" id="Shape" fill="#000000"></path>
                    </g>
                </g>
                <path d="M44.6,2.1 L36.6,2.1 C36.4,2.1 36.3,2.2 36.3,2.4 C36.3,2.6 36.4,2.7 36.6,2.7 L44.6,2.7 C44.8,2.7 44.9,2.6 44.9,2.4 C44.9,2.2 44.7,2.1 44.6,2.1 Z" id="Path" fill="#000000" fill-rule="nonzero"></path>
                <path d="M56.7,2.1 L46.3,2.1 C46.1,2.1 46,2.2 46,2.4 C46,2.6 46.1,2.7 46.3,2.7 L56.7,2.7 C56.9,2.7 57,2.6 57,2.4 C57,2.2 56.9,2.1 56.7,2.1 Z" id="Path" fill="#000000" fill-rule="nonzero"></path>
                <path d="M44.6,4 L40.6,4 C40.4,4 40.3,4.1 40.3,4.3 C40.3,4.5 40.4,4.6 40.6,4.6 L44.6,4.6 C44.8,4.6 44.9,4.5 44.9,4.3 C44.9,4.1 44.7,4 44.6,4 Z" id="Path" fill="#000000" fill-rule="nonzero"></path>
                <path d="M58.5,4 L46.3,4 C46.1,4 46,4.1 46,4.3 C46,4.5 46.1,4.6 46.3,4.6 L58.5,4.6 C58.7,4.6 58.8,4.5 58.8,4.3 C58.8,4.1 58.7,4 58.5,4 Z" id="Path" fill="#000000" fill-rule="nonzero"></path>
                <path d="M16.9,5.8 L10.4,5.8 C10.2,5.8 10.1,5.9 10.1,6.1 C10.1,6.3 10.2,6.4 10.4,6.4 L16.9,6.4 C17.1,6.4 17.2,6.3 17.2,6.1 C17.2,5.9 17.1,5.8 16.9,5.8 Z" id="Path" fill="#000000" fill-rule="nonzero"></path>
                <path d="M8.8,5.8 L6.4,5.8 C6.2,5.8 6.1,5.9 6.1,6.1 C6.1,6.3 6.2,6.4 6.4,6.4 L8.8,6.4 C9,6.4 9.1,6.3 9.1,6.1 C9.1,5.9 8.9,5.8 8.8,5.8 Z" id="Path" fill="#000000" fill-rule="nonzero"></path>
                <path d="M9.6,16.4 L1.2,16.4 C1,16.4 0.9,16.5 0.9,16.7 C0.9,16.9 1,17 1.2,17 L9.6,17 C9.8,17 9.9,16.9 9.9,16.7 C9.9,16.5 9.8,16.4 9.6,16.4 Z" id="Path" fill="#000000" fill-rule="nonzero"></path>
                <path d="M8,17.8 L6.3,17.8 C6.1,17.8 6,17.9 6,18.1 C6,18.3 6.1,18.4 6.3,18.4 L8,18.4 C8.2,18.4 8.3,18.3 8.3,18.1 C8.3,17.9 8.2,17.8 8,17.8 Z" id="Path" fill="#000000" fill-rule="nonzero"></path>
                <path d="M66.5,16.4 L57.5,16.4 C57.3,16.4 57.2,16.5 57.2,16.7 C57.2,16.9 57.3,17 57.5,17 L66.5,17 C66.7,17 66.8,16.9 66.8,16.7 C66.8,16.5 66.6,16.4 66.5,16.4 Z" id="Path" fill="#000000" fill-rule="nonzero"></path>
                <path d="M60.9,18.5 L57.4,18.5 C57.2,18.5 57.1,18.6 57.1,18.8 C57.1,19 57.2,19.1 57.4,19.1 L60.9,19.1 C61.1,19.1 61.2,19 61.2,18.8 C61.2,18.6 61.1,18.5 60.9,18.5 Z" id="Path" fill="#000000" fill-rule="nonzero"></path>
                <path d="M57.4,40 L46.8,40 C46.6,40 46.5,40.1 46.5,40.3 C46.5,40.5 46.6,40.6 46.8,40.6 L57.4,40.6 C57.6,40.6 57.7,40.5 57.7,40.3 C57.7,40.1 57.6,40 57.4,40 Z" id="Path" fill="#000000" fill-rule="nonzero"></path>
                <path d="M62,40 L59.2,40 C59,40 58.9,40.1 58.9,40.3 C58.9,40.5 59,40.6 59.2,40.6 L62,40.6 C62.2,40.6 62.3,40.5 62.3,40.3 C62.3,40.1 62.1,40 62,40 Z" id="Path" fill="#000000" fill-rule="nonzero"></path>
                <path d="M38.2,49.6 L31.4,49.6 C31.2,49.6 31.1,49.7 31.1,49.9 C31.1,50.1 31.2,50.2 31.4,50.2 L38.2,50.2 C38.4,50.2 38.5,50.1 38.5,49.9 C38.5,49.7 38.4,49.6 38.2,49.6 Z" id="Path" fill="#000000" fill-rule="nonzero"></path>
                <path d="M56.7,49.6 L39.9,49.6 C39.7,49.6 39.6,49.7 39.6,49.9 C39.6,50.1 39.7,50.2 39.9,50.2 L56.7,50.2 C56.9,50.2 57,50.1 57,49.9 C57,49.7 56.9,49.6 56.7,49.6 Z" id="Path" fill="#000000" fill-rule="nonzero"></path>
                <path d="M49.8,47.2 L46.8,47.2 C46.6,47.2 46.5,47.3 46.5,47.5 C46.5,47.7 46.6,47.8 46.8,47.8 L49.8,47.8 C50,47.8 50.1,47.7 50.1,47.5 C50.1,47.3 50,47.2 49.8,47.2 Z" id="Path" fill="#000000" fill-rule="nonzero"></path>
                <path d="M58.5,47.2 L51.5,47.2 C51.3,47.2 51.2,47.3 51.2,47.5 C51.2,47.7 51.3,47.8 51.5,47.8 L58.5,47.8 C58.7,47.8 58.8,47.7 58.8,47.5 C58.8,47.3 58.7,47.2 58.5,47.2 Z" id="Path" fill="#000000" fill-rule="nonzero"></path>
                <path d="M63.9,43.6 L48.8,43.6 C48.6,43.6 48.5,43.7 48.5,43.9 C48.5,44.1 48.6,44.2 48.8,44.2 L63.9,44.2 C64.1,44.2 64.2,44.1 64.2,43.9 C64.2,43.7 64,43.6 63.9,43.6 Z" id="Path" fill="#000000" fill-rule="nonzero"></path>
                <g transform="translate(6.000000, 25.000000)" fill="#FFFFFF" fill-rule="nonzero" id="Path">
                    <path d="M1.5,0.2 C1.3,0.2 1.2,0.3 1.2,0.5 L1.2,3 C1.2,3.2 1.3,3.3 1.5,3.3 C1.7,3.3 1.8,3.2 1.8,3 L1.8,0.5 C1.8,0.4 1.7,0.2 1.5,0.2 Z"></path>
                    <path d="M2.8,1.5 L0.3,1.5 C0.1,1.5 0,1.6 0,1.8 C0,2 0.1,2.1 0.3,2.1 L2.8,2.1 C3,2.1 3.1,2 3.1,1.8 C3.1,1.6 3,1.5 2.8,1.5 Z"></path>
                </g>
                <g transform="translate(18.000000, 2.000000)" fill="#FFFFFF" fill-rule="nonzero" id="Path">
                    <path d="M2.4,0.8 C2.2,0.8 2.1,0.9 2.1,1.1 L2.1,3.6 C2.1,3.8 2.2,3.9 2.4,3.9 C2.6,3.9 2.7,3.8 2.7,3.6 L2.7,1.1 C2.7,0.9 2.6,0.8 2.4,0.8 Z"></path>
                    <path d="M3.6,2 L1.1,2 C0.9,2 0.8,2.1 0.8,2.3 C0.8,2.5 0.9,2.6 1.1,2.6 L3.6,2.6 C3.8,2.6 3.9,2.5 3.9,2.3 C3.9,2.1 3.8,2 3.6,2 Z"></path>
                </g>
                <g transform="translate(29.000000, 0.000000)" fill="#FFFFFF" fill-rule="nonzero" id="Path">
                    <path d="M1.7,0 C1.5,0 1.4,0.1 1.4,0.3 L1.4,2.8 C1.4,3 1.5,3.1 1.7,3.1 C1.9,3.1 2,3 2,2.8 L2,0.3 C2,0.1 1.8,0 1.7,0 Z"></path>
                    <path d="M2.9,1.2 L0.4,1.2 C0.2,1.2 0.1,1.3 0.1,1.5 C0.1,1.7 0.2,1.8 0.4,1.8 L2.9,1.8 C3.1,1.8 3.2,1.7 3.2,1.5 C3.2,1.3 3.1,1.2 2.9,1.2 Z"></path>
                </g>
                <g transform="translate(57.000000, 27.000000)" fill="#FFFFFF" fill-rule="nonzero" id="Path">
                    <path d="M2.2,0.8 C2,0.8 1.9,0.9 1.9,1.1 L1.9,3.6 C1.9,3.8 2,3.9 2.2,3.9 C2.4,3.9 2.5,3.8 2.5,3.6 L2.5,1 C2.5,0.9 2.4,0.8 2.2,0.8 Z"></path>
                    <path d="M3.5,2 L1,2 C0.8,2 0.7,2.1 0.7,2.3 C0.7,2.5 0.8,2.6 1,2.6 L3.5,2.6 C3.7,2.6 3.8,2.5 3.8,2.3 C3.8,2.1 3.6,2 3.5,2 Z"></path>
                </g>
                <g transform="translate(22.000000, 48.000000)" fill="#FFFFFF" fill-rule="nonzero" id="Path">
                    <path d="M2.3,0.9 C2.1,0.9 2,1 2,1.2 L2,3.7 C2,3.9 2.1,4 2.3,4 C2.5,4 2.6,3.9 2.6,3.7 L2.6,1.2 C2.6,1.1 2.4,0.9 2.3,0.9 Z"></path>
                    <path d="M3.5,2.2 L1,2.2 C0.8,2.2 0.7,2.3 0.7,2.5 C0.7,2.7 0.8,2.8 1,2.8 L3.5,2.8 C3.7,2.8 3.8,2.7 3.8,2.5 C3.8,2.3 3.7,2.2 3.5,2.2 Z"></path>
                </g>
            </g>
        </g>
    </g>
</svg>